<svg xmlns="http://www.w3.org/2000/svg" viewBox="0 0 16 16"><title>icon_1-safari-pinned-tab</title><path d="M14.53,6.69A6.69,6.69,0,0,0,9.93.78,6.63,6.63,0,0,0,2.59,3.37a7.66,7.66,0,0,0,0,8,8.78,8.78,0,0,0,3.23,3.23A11,11,0,0,0,7,15.17a2.39,2.39,0,0,0,1.16.33,4,4,0,0,0,1.14-.41,8.89,8.89,0,0,0,1-.5A8.94,8.94,0,0,0,14.48,8,8.08,8.08,0,0,0,14.53,6.69ZM4.73,4a4.44,4.44,0,0,1,5.68-.73,4.37,4.37,0,0,1-.33,7.44,4.55,4.55,0,0,1-1.31.47,3.7,3.7,0,0,1-.81.07c-.23,0-.67-.15-.87,0s-.07.35,0,.52a1.37,1.37,0,0,1,0,.75,1.11,1.11,0,0,1-1,.71c-.77,0-1.17-1-1.42-1.57C3.64,9.32,3,6.17,4.73,4Z"/></svg>