<svg xmlns="http://www.w3.org/2000/svg" xmlns:xlink="http://www.w3.org/1999/xlink" width="444.816" height="588.426" viewBox="0 0 444.816 588.426"><defs><linearGradient id="a" x1="0.429" y1="1.017" x2="0.762" y2="-0.012" gradientUnits="objectBoundingBox"><stop offset="0" stop-color="#fff" stop-opacity="0.102"/><stop offset="0.151" stop-color="#fff" stop-opacity="0.282"/><stop offset="0.378" stop-color="#fff" stop-opacity="0.537"/><stop offset="0.584" stop-color="#fff" stop-opacity="0.737"/><stop offset="0.763" stop-color="#fff" stop-opacity="0.878"/><stop offset="0.908" stop-color="#fff" stop-opacity="0.969"/><stop offset="1" stop-color="#fff"/></linearGradient></defs><g transform="translate(-697)"><path d="M222.408,0C345.24,0,444.816,64.794,444.816,144.722S345.24,289.443,222.408,289.443,0,224.649,0,144.722,99.575,0,222.408,0Z" transform="translate(697 298.982)" fill="#fff" opacity="0.04"/><g transform="translate(12)"><path d="M1337.442,375.892,1536.235.932h62.51L1643.8,399.1s15.915,65.007-74.445,101.866-175.628-2.217-189.161-11.135S1303.3,442.815,1337.442,375.892Z" transform="translate(-579.469 -0.932)" opacity="0.04" fill="url(#a)"/><path d="M158.914,0C246.68,0,317.828,46.478,317.828,103.812S246.68,207.623,158.914,207.623,0,161.145,0,103.812,71.148,0,158.914,0Z" transform="translate(748 307.742)" fill="#f7fafc"/></g><g transform="translate(-47.213 -45)"><path d="M266.825,176.6l-3.383,1.953H212.749v.981h48.994L236.15,194.313,216.211,182.8l-24.7,14.263,45.983,26.548h-5.938v1.962h9.337l.028.016.028-.016h15.806l10.076,5.818L314.274,204Z" transform="translate(799.331 255.383)" fill="#bbbdbf"/><g transform="translate(629.733 163.565)"><rect width="30.243" height="14.882" transform="translate(343.45 295.02)" fill="#bbbdbf"/><path d="M215,207.909h0V197.454h-3.716v10.455a.9.9,0,0,0,.541.792,2.9,2.9,0,0,0,2.635,0A.906.906,0,0,0,215,207.909Z" transform="translate(187.744 108.403)"/><path d="M233.752,191.667a2.9,2.9,0,0,1-2.635,0,.8.8,0,0,1,0-1.52,2.9,2.9,0,0,1,2.635,0A.8.8,0,0,1,233.752,191.667Z" transform="translate(223.04 94.451)"/><g transform="translate(318.268 177.739)"><path d="M183.458,241.176a.706.706,0,0,1-.708-.708V152.894a.708.708,0,1,1,1.415,0v87.575A.706.706,0,0,1,183.458,241.176Z" transform="translate(-182.75 -152.186)"/></g><g transform="translate(454.766 178.243)"><path d="M231.687,260.291a.708.708,0,0,1-.708-.708V153.072a.708.708,0,1,1,1.415,0V259.584A.706.706,0,0,1,231.687,260.291Z" transform="translate(-230.979 -152.364)"/></g><g transform="translate(313.301 248.803)"><path d="M250.307,244.942,181.245,205V177.545l69.063,39.944Z" transform="translate(-180.538 -176.838)" fill="#f6ad55"/><path d="M250.762,246.106a.69.69,0,0,1-.354-.093l-69.06-39.943a.708.708,0,0,1-.354-.614V178a.7.7,0,0,1,.354-.611.717.717,0,0,1,.708,0l69.06,39.943a.708.708,0,0,1,.354.614V245.4a.708.708,0,0,1-.354.614A.683.683,0,0,1,250.762,246.106ZM182.41,205.048l67.645,39.125V218.356L182.41,179.228Z" transform="translate(-180.995 -177.295)"/></g><g transform="translate(311.09 241.886)"><path d="M251.736,216.25,180.464,175.1v5.709l71.273,41.149Z" transform="translate(-179.757 -174.394)" fill="#f8ae4f"/><path d="M252.192,223.125a.719.719,0,0,1-.354-.093l-71.27-41.151a.706.706,0,0,1-.354-.611v-5.709a.711.711,0,0,1,.354-.614.7.7,0,0,1,.708,0l71.27,41.148a.708.708,0,0,1,.354.614v5.709a.7.7,0,0,1-.708.708Zm-70.563-42.266L251.484,221.2v-4.078l-69.855-40.33Z" transform="translate(-180.214 -174.851)"/></g><g transform="translate(311.09 221.311)"><path d="M251.736,229.555l-71.273-41.149L216.1,167.832l71.273,41.149Z" transform="translate(-179.757 -167.123)" fill="#f8ae4f"/><path d="M252.192,230.722a.693.693,0,0,1-.354-.1l-71.27-41.148a.708.708,0,0,1,0-1.225L216.2,167.677a.7.7,0,0,1,.708,0l71.273,41.151a.705.705,0,0,1,0,1.223l-35.638,20.576A.685.685,0,0,1,252.192,230.722Zm-69.855-41.856,69.855,40.33,34.223-19.758-69.858-40.333Z" transform="translate(-180.214 -167.581)"/></g><g transform="translate(314.053 223.815)"><path d="M238.1,217.723l-56.588-32.671,28.294-16.336,56.588,32.671Z" transform="translate(-180.803 -168.009)" fill="#fff"/><path d="M238.559,218.889a.714.714,0,0,1-.354-.1l-56.59-32.672a.708.708,0,0,1,0-1.225l28.3-16.336a.717.717,0,0,1,.708,0l56.587,32.672a.707.707,0,0,1,0,1.225l-28.294,16.336A.722.722,0,0,1,238.559,218.889Zm-55.175-33.379,55.175,31.854,26.878-15.518-55.172-31.857Z" transform="translate(-181.261 -168.466)"/></g><path d="M241.9,195.262l-46.125-26.546-6.191,3.575,17.441,32.977,17.437.025Z" transform="translate(148.024 55.806)" fill="#bbbdbf"/><g transform="translate(382.36 270.648)"><path d="M205.646,230.814l31.164-18.1V185.264l-31.164,18.1Z" transform="translate(-204.938 -184.555)" fill="#f08300"/><path d="M206.1,231.979a.673.673,0,0,1-.351-.093.707.707,0,0,1-.357-.614V203.818a.706.706,0,0,1,.354-.611l31.163-18.1a.7.7,0,0,1,.708,0,.711.711,0,0,1,.357.614v27.456a.706.706,0,0,1-.354.611L206.46,231.883A.7.7,0,0,1,206.1,231.979Zm.708-27.753v25.817l29.751-17.273V186.95Z" transform="translate(-205.396 -185.014)"/></g><g transform="translate(382.36 262.557)"><path d="M205.646,202.945l35.636-20.574v5.709l-35.636,20.575Z" transform="translate(-204.938 -181.76)" fill="#f28500"/><path d="M206.457,209.665l-1.061-.614v-5.709l.354-.614,35.638-20.573,1.061.611v5.709l-.354.614Zm.354-5.915v4.078l23.6-13.628,10.62-6.132v-4.076Z" transform="translate(-205.396 -182.155)"/></g><path d="M212.247,212.136c0,8.836-6.2,12.419-13.859,8s-13.857-15.167-13.857-24.006,6.2-12.419,13.857-8S212.247,203.3,212.247,212.136Z" transform="translate(138.777 87.876)"/><g transform="translate(324.896 276.369)"><path d="M202.526,218.317a11.185,11.185,0,0,1-5.519-1.678c-6.569-3.8-11.915-13.053-11.915-20.638,0-3.829,1.327-6.7,3.742-8.1s5.564-1.1,8.881.809c6.569,3.8,11.915,13.053,11.915,20.638,0,3.829-1.327,6.7-3.742,8.1A6.638,6.638,0,0,1,202.526,218.317ZM192.2,188.45a5.244,5.244,0,0,0-2.658.676c-1.956,1.132-3.034,3.572-3.034,6.875,0,7.135,5.029,15.843,11.208,19.41,2.859,1.656,5.508,1.944,7.469.815s3.031-3.572,3.031-6.875c0-7.135-5.026-15.844-11.208-19.412A9.822,9.822,0,0,0,192.2,188.45Z" transform="translate(-185.092 -187.035)" fill="#f8ae4f"/></g><g transform="translate(331.96 285.494)"><path d="M194.8,203.292a4.792,4.792,0,0,1-2.363-.71,10.579,10.579,0,0,1-4.851-8.4,3.433,3.433,0,0,1,5.559-3.212,10.579,10.579,0,0,1,4.851,8.4,3.828,3.828,0,0,1-1.67,3.526A3.035,3.035,0,0,1,194.8,203.292Zm-4.013-11.615a1.606,1.606,0,0,0-.821.2,2.506,2.506,0,0,0-.965,2.3,9.319,9.319,0,0,0,4.143,7.174,2.059,2.059,0,0,0,3.436-1.987,9.311,9.311,0,0,0-4.143-7.175A3.385,3.385,0,0,0,190.789,191.677Z" transform="translate(-187.588 -190.259)" fill="#f8ae4f"/></g><g transform="translate(317.877 138.224)"><path d="M251.307,217.508l-68.445-39.517,68.445-39.517,68.445,39.517Z" transform="translate(-182.155 -137.767)" fill="#fff"/><path d="M251.762,218.672a.693.693,0,0,1-.354-.1l-68.443-39.515a.708.708,0,0,1,0-1.225l68.443-39.515a.7.7,0,0,1,.708,0l68.446,39.515a.708.708,0,0,1,0,1.225l-68.446,39.515A.686.686,0,0,1,251.762,218.672Zm-67.028-40.226,67.028,38.7,67.031-38.7-67.031-38.7Z" transform="translate(-182.612 -138.224)"/></g><g transform="translate(308.319 185.862)"><path d="M263.231,204.088a4.476,4.476,0,0,1-2.508-1.1,4.6,4.6,0,0,0-6.464,0,4.508,4.508,0,0,1-2.516,1.1,3.992,3.992,0,0,1-1.978-.631,10.714,10.714,0,0,1-3.787-4.242,12.043,12.043,0,0,0-4.291-4.732,5.172,5.172,0,0,0-2.573-.809,4.649,4.649,0,0,0-2.131.611,3.333,3.333,0,0,1-1.5.47,3.845,3.845,0,0,1-1.865-.62,10.734,10.734,0,0,1-3.787-4.242,12.065,12.065,0,0,0-4.291-4.732,5.178,5.178,0,0,0-2.573-.812,4.6,4.6,0,0,0-2.128.614,3.344,3.344,0,0,1-1.506.47,3.845,3.845,0,0,1-1.865-.62,10.747,10.747,0,0,1-3.784-4.242,12.046,12.046,0,0,0-4.291-4.732,5.178,5.178,0,0,0-2.573-.812,4.649,4.649,0,0,0-2.131.614,3.334,3.334,0,0,1-1.506.47,3.872,3.872,0,0,1-1.865-.62,10.742,10.742,0,0,1-3.781-4.242,12.065,12.065,0,0,0-4.291-4.732,5.184,5.184,0,0,0-2.573-.809,4.613,4.613,0,0,0-2.128.614,3.344,3.344,0,0,1-1.506.47,3.832,3.832,0,0,1-1.865-.623,10.054,10.054,0,0,1-3.716-3.9,19.108,19.108,0,0,0-1.97-2.709l0-4.01L257.135,200h.7l77.7-44.516v4.01a19.3,19.3,0,0,0-1.984,2.72,10.257,10.257,0,0,1-3.753,3.948,3.841,3.841,0,0,1-1.862.623,3.334,3.334,0,0,1-1.509-.47,4.6,4.6,0,0,0-2.128-.614,5.2,5.2,0,0,0-2.576.809,12.048,12.048,0,0,0-4.285,4.732,10.771,10.771,0,0,1-3.784,4.242,3.862,3.862,0,0,1-1.865.62,3.345,3.345,0,0,1-1.508-.47,4.637,4.637,0,0,0-2.128-.614,5.178,5.178,0,0,0-2.573.812,12.037,12.037,0,0,0-4.288,4.732,10.791,10.791,0,0,1-3.784,4.242,3.872,3.872,0,0,1-1.865.62,3.345,3.345,0,0,1-1.508-.47,4.6,4.6,0,0,0-2.131-.614,5.179,5.179,0,0,0-2.573.812,12.042,12.042,0,0,0-4.285,4.729,10.765,10.765,0,0,1-3.787,4.245,3.872,3.872,0,0,1-1.868.62,3.334,3.334,0,0,1-1.506-.47,4.637,4.637,0,0,0-2.128-.611,5.171,5.171,0,0,0-2.573.809A12.056,12.056,0,0,0,269,199.215a10.757,10.757,0,0,1-3.787,4.242A4.01,4.01,0,0,1,263.231,204.088Z" transform="translate(-178.777 -154.265)" fill="#f8ae4f"/><path d="M335.287,157.5v2.522a21.2,21.2,0,0,0-1.874,2.609,9.518,9.518,0,0,1-3.509,3.713,3.214,3.214,0,0,1-1.511.526,2.7,2.7,0,0,1-1.194-.4,5.285,5.285,0,0,0-2.442-.685,5.851,5.851,0,0,0-2.924.9,12.817,12.817,0,0,0-4.54,4.978,10.055,10.055,0,0,1-3.535,4,3.247,3.247,0,0,1-1.509.526,2.718,2.718,0,0,1-1.194-.4,5.284,5.284,0,0,0-2.442-.688,5.867,5.867,0,0,0-2.926.906,12.8,12.8,0,0,0-4.54,4.978,10.055,10.055,0,0,1-3.535,4,3.246,3.246,0,0,1-1.511.526,2.74,2.74,0,0,1-1.194-.4,5.272,5.272,0,0,0-2.44-.688,5.858,5.858,0,0,0-2.926.906,12.773,12.773,0,0,0-4.54,4.978,10.076,10.076,0,0,1-3.535,4,3.233,3.233,0,0,1-1.511.526,2.718,2.718,0,0,1-1.194-.4,5.285,5.285,0,0,0-2.442-.685,5.861,5.861,0,0,0-2.926.9,12.8,12.8,0,0,0-4.54,4.978,10.084,10.084,0,0,1-3.535,4,3.352,3.352,0,0,1-1.625.535,3.828,3.828,0,0,1-2.109-.974,5.273,5.273,0,0,0-7.274,0,3.836,3.836,0,0,1-2.109.974,3.353,3.353,0,0,1-1.627-.535,10.085,10.085,0,0,1-3.535-4,12.794,12.794,0,0,0-4.54-4.978,5.86,5.86,0,0,0-2.926-.9,5.285,5.285,0,0,0-2.443.685,2.718,2.718,0,0,1-1.194.4,3.233,3.233,0,0,1-1.511-.526,10.076,10.076,0,0,1-3.535-4,12.773,12.773,0,0,0-4.54-4.978,5.858,5.858,0,0,0-2.926-.906,5.272,5.272,0,0,0-2.44.688,2.74,2.74,0,0,1-1.194.4,3.246,3.246,0,0,1-1.511-.526,10.056,10.056,0,0,1-3.535-4,12.8,12.8,0,0,0-4.54-4.978,5.867,5.867,0,0,0-2.926-.906,5.284,5.284,0,0,0-2.443.688,2.718,2.718,0,0,1-1.194.4,3.247,3.247,0,0,1-1.508-.526,10.055,10.055,0,0,1-3.535-4,12.817,12.817,0,0,0-4.54-4.978,5.851,5.851,0,0,0-2.924-.9,5.285,5.285,0,0,0-2.442.685,2.7,2.7,0,0,1-1.194.4,3.214,3.214,0,0,1-1.511-.526,9.358,9.358,0,0,1-3.473-3.668,20.582,20.582,0,0,0-1.862-2.6v-2.525l76.591,43.857h1.407L335.287,157.5Zm1.415-2.443h0Zm0,0-78.759,45.128-78.708-45.068v5.508c2.392,2.53,2.672,5,6.042,6.945a4.448,4.448,0,0,0,2.219.716c1.429,0,2.2-1.081,3.637-1.081a4.439,4.439,0,0,1,2.216.716c4.036,2.329,4.036,6.643,8.075,8.972a4.44,4.44,0,0,0,2.216.716c1.432,0,2.2-1.084,3.637-1.084a4.456,4.456,0,0,1,2.219.716c4.036,2.332,4.036,6.645,8.075,8.975a4.439,4.439,0,0,0,2.219.716c1.429,0,2.2-1.084,3.634-1.084a4.44,4.44,0,0,1,2.219.716c4.039,2.332,4.039,6.645,8.075,8.975a4.456,4.456,0,0,0,2.219.716c1.432,0,2.208-1.081,3.637-1.081a4.468,4.468,0,0,1,2.219.713c4.039,2.332,4.039,6.645,8.075,8.977a4.685,4.685,0,0,0,2.335.725c2.309,0,3.507-2.428,5.745-2.428s3.436,2.428,5.745,2.428a4.684,4.684,0,0,0,2.332-.725c4.036-2.332,4.036-6.645,8.075-8.977a4.468,4.468,0,0,1,2.219-.713c1.432,0,2.2,1.081,3.637,1.081a4.456,4.456,0,0,0,2.219-.716c4.036-2.329,4.036-6.642,8.075-8.975a4.44,4.44,0,0,1,2.219-.716c1.429,0,2.2,1.084,3.634,1.084a4.439,4.439,0,0,0,2.219-.716c4.039-2.329,4.039-6.642,8.075-8.975a4.448,4.448,0,0,1,2.219-.716c1.432,0,2.2,1.084,3.637,1.084a4.44,4.44,0,0,0,2.216-.716c4.039-2.329,4.039-6.643,8.075-8.972a4.439,4.439,0,0,1,2.216-.716c1.432,0,2.208,1.081,3.637,1.081a4.448,4.448,0,0,0,2.219-.716c3.368-1.944,3.7-4.475,6.091-7v-5.51Z" transform="translate(-179.235 -155.056)"/></g><g transform="translate(308.319 185.85)"><path d="M251.757,204.087a3.985,3.985,0,0,1-1.992-.623,10.714,10.714,0,0,1-3.787-4.242,12.043,12.043,0,0,0-4.291-4.732,5.172,5.172,0,0,0-2.573-.809,4.649,4.649,0,0,0-2.131.611,3.333,3.333,0,0,1-1.5.47,3.845,3.845,0,0,1-1.865-.62,10.734,10.734,0,0,1-3.787-4.242,12.065,12.065,0,0,0-4.291-4.732,5.178,5.178,0,0,0-2.573-.812,4.6,4.6,0,0,0-2.128.614,3.344,3.344,0,0,1-1.506.47,3.845,3.845,0,0,1-1.865-.62,10.747,10.747,0,0,1-3.784-4.242,12.046,12.046,0,0,0-4.291-4.732,5.178,5.178,0,0,0-2.573-.812,4.649,4.649,0,0,0-2.131.614,3.334,3.334,0,0,1-1.506.47,3.872,3.872,0,0,1-1.865-.62,10.742,10.742,0,0,1-3.781-4.242,12.065,12.065,0,0,0-4.291-4.732,5.184,5.184,0,0,0-2.573-.809,4.613,4.613,0,0,0-2.128.614,3.344,3.344,0,0,1-1.506.47,3.832,3.832,0,0,1-1.865-.623,9.979,9.979,0,0,1-3.7-3.928,18.823,18.823,0,0,0-1.984-2.751l0-4.01,77.6,44.491v1.69a7.07,7.07,0,0,0-2.6,1.265,5.056,5.056,0,0,1-2.737,1.158Z" transform="translate(-178.777 -154.261)" fill="#fff"/><path d="M180.65,157.494l76.189,43.681v.73a9.252,9.252,0,0,0-2.284,1.225,4.485,4.485,0,0,1-2.343,1.039,3.339,3.339,0,0,1-1.639-.526,10.085,10.085,0,0,1-3.535-4,12.794,12.794,0,0,0-4.54-4.978,5.86,5.86,0,0,0-2.926-.9,5.285,5.285,0,0,0-2.443.685,2.718,2.718,0,0,1-1.194.4,3.233,3.233,0,0,1-1.511-.526,10.076,10.076,0,0,1-3.535-4,12.773,12.773,0,0,0-4.54-4.978,5.858,5.858,0,0,0-2.926-.906,5.272,5.272,0,0,0-2.44.688,2.74,2.74,0,0,1-1.194.4,3.246,3.246,0,0,1-1.511-.526,10.056,10.056,0,0,1-3.535-4,12.8,12.8,0,0,0-4.54-4.978,5.867,5.867,0,0,0-2.926-.906,5.284,5.284,0,0,0-2.443.688,2.718,2.718,0,0,1-1.194.4,3.247,3.247,0,0,1-1.508-.526,10.055,10.055,0,0,1-3.535-4,12.817,12.817,0,0,0-4.54-4.978,5.852,5.852,0,0,0-2.926-.9,5.283,5.283,0,0,0-2.44.685,2.7,2.7,0,0,1-1.194.4,3.214,3.214,0,0,1-1.511-.526,9.273,9.273,0,0,1-3.456-3.691,20.826,20.826,0,0,0-1.876-2.643l0-2.522Zm-1.415-2.442,0,5.51c2.389,2.527,2.669,5.069,6.04,7.013a4.448,4.448,0,0,0,2.219.716c1.429,0,2.2-1.081,3.634-1.081a4.44,4.44,0,0,1,2.219.716c4.036,2.329,4.036,6.643,8.075,8.972a4.44,4.44,0,0,0,2.216.716c1.432,0,2.2-1.084,3.637-1.084a4.456,4.456,0,0,1,2.219.716c4.036,2.332,4.036,6.645,8.075,8.975a4.439,4.439,0,0,0,2.219.716c1.429,0,2.2-1.084,3.634-1.084a4.44,4.44,0,0,1,2.219.716c4.039,2.332,4.039,6.645,8.075,8.975a4.456,4.456,0,0,0,2.219.716c1.432,0,2.208-1.081,3.637-1.081a4.468,4.468,0,0,1,2.219.713c4.039,2.332,4.039,6.645,8.075,8.977a4.678,4.678,0,0,0,2.346.716c2.411,0,3.8-2.491,6.045-2.491l0-2.74-79.019-45.3Z" transform="translate(-179.235 -155.052)"/></g><g transform="translate(308.014 177.835)"><path d="M257.866,191.888,189.4,152.437l-10.12,7.651,78.588,45.373Z" transform="translate(-178.851 -151.824)" fill="#fff"/><path d="M257.787,206.469,179.2,161.1l-.074-1.175,10.121-7.653.778-.048,68.468,39.45.354.614v13.571ZM180.831,160.4l76.6,44.225V192.692L189.726,153.68Z" transform="translate(-179.127 -152.22)"/></g><g transform="translate(386.32 177.835)"><path d="M207.046,191.888l68.445-39.451,10.162,7.64-78.608,45.384Z" transform="translate(-206.337 -151.824)" fill="#f8ae4f"/><path d="M207.856,206.469l-1.061-.614V192.284l.354-.614,68.446-39.45.781.048,10.16,7.639-.071,1.177Zm.354-13.777V204.63L284.829,160.4,275.9,153.68Z" transform="translate(-206.795 -152.22)"/></g><g transform="translate(387.029 273.407)" opacity="0.6"><path d="M217.205,187.4h-10.16v-1.415h12.615Z" transform="translate(-207.046 -185.989)"/></g><g transform="translate(386.32 217.192)"><path d="M207.5,223.757a.708.708,0,0,1-.708-.708V166.834a.708.708,0,1,1,1.415,0V223.05A.706.706,0,0,1,207.5,223.757Z" transform="translate(-206.795 -166.126)"/></g><g transform="translate(317.417 222.125)"><g transform="translate(0 7.747)"><path d="M219.624,200.717,182.7,179.4l3.983-8.542,28.959,16.719Z" transform="translate(-181.992 -170.149)" fill="#fff"/><path d="M220.082,201.882a.723.723,0,0,1-.354-.1L182.8,180.466a.7.7,0,0,1-.286-.909l3.982-8.542a.7.7,0,0,1,.993-.314L216.45,187.42a.706.706,0,0,1,.326.408l3.982,13.141a.7.7,0,0,1-.238.758A.688.688,0,0,1,220.082,201.882ZM184.07,179.566l34.814,20.1L215.5,188.507l-28.047-16.194Z" transform="translate(-182.449 -170.606)"/></g><g transform="translate(32.94 16.611)"><path d="M198.322,194.984l21.694-12.454-11.95-8.542-13.727,7.854Z" transform="translate(-193.63 -173.281)" fill="#f8ae4f"/><path d="M198.78,196.15a.7.7,0,0,1-.26-.051.707.707,0,0,1-.416-.45l-3.985-13.143a.706.706,0,0,1,.326-.818l13.726-7.857a.712.712,0,0,1,.764.04l11.952,8.542a.708.708,0,0,1-.059,1.189l-21.693,12.453A.723.723,0,0,1,198.78,196.15Zm-3.144-13.514,3.563,11.751,19.967-11.465-10.687-7.636Z" transform="translate(-194.088 -173.738)"/></g><g transform="translate(4.335)"><path d="M213.053,192.631l-28.947-16.705,13.739-7.84,28.946,16.705Z" transform="translate(-183.751 -167.472)" fill="#fff"/><path d="M213.633,193.644l-.7,0-28.947-16.707,0-1.225,13.741-7.84.7,0,28.945,16.7,0,1.228Zm-27.875-17.318,27.524,15.886,12.317-7.027L198.073,169.3Z" transform="translate(-183.981 -167.869)"/></g></g><g transform="translate(243.705 145.689)"><g transform="translate(0 96.551)"><ellipse cx="23.57" cy="13.608" rx="23.57" ry="13.608" transform="translate(0.707 0.691)" fill="#f48700"/><path d="M132.982,235.725c-6.164,0-12.328-1.35-17.021-4.059s-7.257-6.34-7.257-10.237,2.578-7.534,7.257-10.237c9.385-5.417,24.657-5.417,34.042,0,4.678,2.7,7.257,6.337,7.257,10.237s-2.576,7.534-7.257,10.237h0C145.311,234.374,139.147,235.725,132.982,235.725Zm0-27.2a33.34,33.34,0,0,0-16.313,3.9c-4.223,2.437-6.549,5.635-6.549,9.009s2.326,6.572,6.549,9.008c8.994,5.191,23.632,5.191,32.627,0,4.225-2.437,6.549-5.638,6.549-9.008s-2.326-6.572-6.549-9.009A33.348,33.348,0,0,0,132.982,208.523Z" transform="translate(-108.705 -207.13)"/></g><g transform="translate(9.982 102.313)"><path d="M135.679,222.8c-5.307,3.062-13.91,3.062-19.217,0s-5.307-8.032,0-11.094,13.91-3.065,19.217,0S140.985,219.738,135.679,222.8Z" transform="translate(-111.775 -208.718)" fill="#faaf48"/><path d="M126.527,226.242a20.347,20.347,0,0,1-9.962-2.38c-2.793-1.613-4.333-3.8-4.333-6.159s1.54-4.548,4.333-6.161c5.493-3.17,14.428-3.167,19.925,0,2.793,1.613,4.333,3.8,4.333,6.161s-1.54,4.545-4.333,6.159A20.347,20.347,0,0,1,126.527,226.242Zm0-15.685a18.9,18.9,0,0,0-9.252,2.213c-2.338,1.347-3.625,3.1-3.625,4.933s1.288,3.583,3.625,4.933c5.1,2.946,13.41,2.952,18.51,0h0c2.338-1.35,3.625-3.1,3.625-4.933s-1.288-3.586-3.625-4.933A18.928,18.928,0,0,0,126.525,210.557Z" transform="translate(-112.232 -209.165)"/></g><g transform="translate(3.804)"><g transform="translate(1.015 50.061)"><path d="M129.408,250.326l-18.75-59.373,37.5.013Z" transform="translate(-109.95 -190.246)" fill="#f8ae4f"/><path d="M129.866,251.493a.708.708,0,0,1-.674-.5l-18.75-59.375a.691.691,0,0,1,.1-.631.7.7,0,0,1,.569-.289h0l37.495.014a.713.713,0,0,1,.572.289.7.7,0,0,1,.1.631L130.54,251A.708.708,0,0,1,129.866,251.493Zm-17.785-59.375,17.785,56.318,17.779-56.3Z" transform="translate(-110.408 -190.703)"/></g><g transform="translate(0.642 36.938)"><path d="M143.169,205.157c-7.466,4.313-19.574,4.313-27.043,0s-7.466-11.3,0-15.611,19.577-4.313,27.043,0S150.638,200.847,143.169,205.157Z" transform="translate(-109.818 -185.618)" fill="#f48700"/><path d="M130.107,209.534a28.379,28.379,0,0,1-13.874-3.314c-3.841-2.219-5.958-5.208-5.958-8.42s2.117-6.2,5.958-8.42c7.65-4.418,20.1-4.418,27.747,0,3.841,2.219,5.958,5.208,5.958,8.42s-2.117,6.2-5.958,8.42A28.379,28.379,0,0,1,130.107,209.534Zm0-22.073a26.9,26.9,0,0,0-13.166,3.144c-3.385,1.953-5.25,4.509-5.25,7.194s1.865,5.241,5.25,7.194c7.257,4.189,19.076,4.189,26.332,0,3.385-1.953,5.25-4.509,5.25-7.194s-1.865-5.242-5.25-7.194A26.941,26.941,0,0,0,130.107,187.461Z" transform="translate(-110.276 -186.066)"/></g><g transform="translate(0 32.98)"><path d="M134.54,197.04a12.12,12.12,0,1,1-12.119-12.122A12.119,12.119,0,0,1,134.54,197.04Z" transform="translate(-109.591 -184.21)" fill="#f28500"/><path d="M122.878,210.327A12.829,12.829,0,1,1,135.7,197.5,12.844,12.844,0,0,1,122.878,210.327Zm0-24.244A11.414,11.414,0,1,0,134.29,197.5,11.426,11.426,0,0,0,122.878,186.083Z" transform="translate(-110.049 -184.668)"/></g><g transform="translate(15.476 32.98)"><path d="M140.011,197.04a12.122,12.122,0,1,1-12.122-12.122A12.121,12.121,0,0,1,140.011,197.04Z" transform="translate(-115.059 -184.21)" fill="#f28500"/><path d="M128.346,210.327A12.829,12.829,0,1,1,141.176,197.5,12.846,12.846,0,0,1,128.346,210.327Zm0-24.244A11.414,11.414,0,1,0,139.761,197.5,11.426,11.426,0,0,0,128.346,186.083Z" transform="translate(-115.517 -184.668)"/></g><g transform="translate(5.462)"><g transform="translate(0.708 1.149)"><path d="M124.7,222.256a7.718,7.718,0,0,1-3.925-.948,8.694,8.694,0,0,1-3.467-2.844c-.2-.258-.422-.535-.679-.838l-.727-.841c-1.8-2.066-3.668-4.2-3.668-7.562a10.635,10.635,0,0,1,1.537-4.616,17.372,17.372,0,0,0,.954-2.069,32.843,32.843,0,0,1,3.92-7.26,39.234,39.234,0,0,0,2.765-4.653c1.092-2.29.9-4.673.716-6.976a12.4,12.4,0,0,1,.252-5.075,4.832,4.832,0,0,0,.218-1.639,4.191,4.191,0,0,1,.3-1.831,8.752,8.752,0,0,1,1-1.684c2.072,2.788,9.461,12.911,11.021,17.145a33.482,33.482,0,0,1,1.729,7.548,14.436,14.436,0,0,0,.617,3.076,5.982,5.982,0,0,0,.928,1.46c.94,1.214,2.227,2.875,2.227,7.251,0,8.465-7.2,12.323-13.885,12.323Z" transform="translate(-112.229 -173.421)" fill="#fff"/></g><path d="M124.381,175.39c2.607,3.549,8.921,12.348,10.325,16.163a32.826,32.826,0,0,1,1.7,7.4,14.594,14.594,0,0,0,.657,3.238,6.554,6.554,0,0,0,1.027,1.636c.925,1.2,2.08,2.686,2.08,6.818,0,7.978-6.829,11.612-13.177,11.612-.334,0-.659.008-.982.017-.286.009-.572.017-.855.017a7.013,7.013,0,0,1-3.594-.866,8.061,8.061,0,0,1-3.241-2.658c-.207-.263-.433-.546-.693-.855-.241-.286-.487-.569-.739-.858-1.794-2.055-3.49-4-3.49-7.09a9.934,9.934,0,0,1,1.46-4.291,18.239,18.239,0,0,0,.993-2.157,32.275,32.275,0,0,1,3.838-7.109,39.441,39.441,0,0,0,2.816-4.738c1.172-2.459.965-5.049.781-7.336a11.909,11.909,0,0,1,.215-4.78,5.334,5.334,0,0,0,.255-1.871,3.62,3.62,0,0,1,.243-1.557,7.268,7.268,0,0,1,.385-.739Zm0-2.375a10.2,10.2,0,0,0-1.678,2.547c-.623,1.426-.156,2.462-.535,3.518-1.285,3.592.925,8.069-.94,11.983s-4.961,7.03-6.713,11.983c-.674,1.91-2.533,4.279-2.533,6.92,0,4.1,2.547,6.478,4.565,8.861,1.322,1.562,1.622,2.417,4.356,3.849a8.4,8.4,0,0,0,4.251,1.03c.6,0,1.2-.034,1.837-.034,7.554,0,14.593-4.477,14.593-13.027,0-6.277-2.564-7.33-3.207-8.969-.7-1.809-.475-5.547-2.341-10.613s-11.655-18.048-11.655-18.048Z" transform="translate(-111.979 -173.015)"/></g><g transform="translate(9.319 0.272)"><path d="M113.342,216.979c.359-5.847,4.494-8.36,8.176-10.6,3.125-1.9,6.076-3.693,6.759-7.26,1.327-6.948-4.248-19.964-6.3-24.425-.436-.951-.713-1.511-.73-1.542-.173-.351,2.332,1.528,3.512,4.33,2.508,5.949,6.062,15.855,4.9,21.9-.8,4.183-4.158,6.224-7.409,8.2-4.044,2.457-7.859,4.78-7.5,11.018C114.777,219,113.308,217.52,113.342,216.979Z" transform="translate(-113.342 -173.111)"/></g><g transform="translate(19.54 29.29)"><path d="M117.063,204.041c-.238-2.015-.425-7.2,3.2-10.987a23.387,23.387,0,0,1,4.112-3.238c2.641-1.76,4.537-3.026,4.135-6.221-.082-.642,1.511.144,1.449,1.217-.175,3.1-2.44,4.608-4.8,6.181a22.227,22.227,0,0,0-3.875,3.037c-3.272,3.413-3,8.321-2.8,9.982C118.535,204.372,117.12,204.522,117.063,204.041Z" transform="translate(-116.953 -183.364)"/></g><g transform="translate(8.601 5.659)"><path d="M115.171,195.348a22.036,22.036,0,0,1,2.6-1.542c2.394-1.271,4.285-2.275,5.007-6.362.606-3.442-1.443-8.143-2.564-10.381-.393-.784.334-2.338.538-2,.175.3,4.33,7.472,3.419,12.628-.841,4.766-3.331,6.091-5.737,7.367a11.532,11.532,0,0,0-5.329,4.687C112.966,199.97,114.011,196.186,115.171,195.348Z" transform="translate(-113.088 -175.014)"/></g></g></g><g transform="translate(407.583 230.802)"><g transform="translate(11.403 68.276)"><path d="M219.072,202.416c1.149.668,3.886,1.022,6.926-1.344,2.349-1.825,2.7-2.573,2.7-3.826,0-2.459-4.31-2.842-5.734-.229C221.651,199.428,216.867,201.134,219.072,202.416Z" transform="translate(-218.039 -194.761)" fill="#fff"/><path d="M221.527,203.674a4.865,4.865,0,0,1-2.389-.56h0a1.383,1.383,0,0,1-.8-1.073c-.059-.852.866-1.576,2.035-2.493a9.526,9.526,0,0,0,2.482-2.454,4.088,4.088,0,0,1,4.562-1.913,2.459,2.459,0,0,1,2.038,2.363c0,1.443-.436,2.292-2.876,4.192A8.26,8.26,0,0,1,221.527,203.674Zm-1.925-1.359c.937.543,3.481.971,6.41-1.31,2.284-1.772,2.522-2.417,2.522-3.461a1.592,1.592,0,0,0-1.344-1.472,3.2,3.2,0,0,0-3.524,1.463,10.1,10.1,0,0,1-2.723,2.74c-.761.6-1.709,1.339-1.684,1.7.006.091.136.215.342.337Z" transform="translate(-218.337 -195.059)"/></g><g transform="translate(27.767 69.379)"><path d="M224.883,204c.985.778,3.209.631,5.683-1.016,1.9-1.271,3.645-4.91,2.819-5.856-2.564-2.941-5.185-1.186-5.952,1.687C226.5,202.323,222.865,202.408,224.883,204Z" transform="translate(-223.821 -195.15)" fill="#fff"/><path d="M226.785,205.219a3.019,3.019,0,0,1-1.891-.558h0a1.712,1.712,0,0,1-.776-1.2c-.011-.591.481-1.008,1.047-1.489a5.64,5.64,0,0,0,2.12-2.977,4.532,4.532,0,0,1,3.014-3.47c.886-.207,2.25-.1,3.73,1.6a1.744,1.744,0,0,1,.294,1.426,8.607,8.607,0,0,1-3.207,5.114A8.057,8.057,0,0,1,226.785,205.219Zm4.169-8.847a2.008,2.008,0,0,0-.447.051,3.649,3.649,0,0,0-2.329,2.81,6.622,6.622,0,0,1-2.414,3.444c-.323.275-.725.614-.722.767,0,.017.014.167.424.492h0c.815.648,2.842.492,5.14-1.039a7.8,7.8,0,0,0,2.8-4.469c.065-.492-.04-.659-.076-.7A3.316,3.316,0,0,0,230.954,196.372Z" transform="translate(-224.119 -195.449)"/></g><path d="M231.333,187.07s-1.721-4.192-1.537-5.969.031-8.1-1.729-9.2c-3.136-1.953-7.483.252-7.483,3.045,0,3.365.832,7.922,2.366,8.462s2.672,8.516,2.672,8.516Z" transform="translate(-202.822 -170.524)" fill="#f8ae4f"/><g transform="translate(1.508 11.288)"><path d="M226.693,193.407a24.869,24.869,0,0,1-10.622-2.352,1.845,1.845,0,1,1,1.582-3.334,21.367,21.367,0,0,0,10.743,1.925l1.378-12.382c.11-1.013,1.118-2.267,2.123-2.159,0,0,1.659,1.554,1.545,2.567l-1.537,13.82a1.843,1.843,0,0,1-1.458,1.6A19.957,19.957,0,0,1,226.693,193.407Z" transform="translate(-214.52 -174.604)" fill="#fff"/><path d="M227.017,194.222a25.459,25.459,0,0,1-10.837-2.4,2.341,2.341,0,1,1,2.009-4.228A20.693,20.693,0,0,0,228.27,189.5l1.333-11.975c.141-1.288,1.341-2.72,2.669-2.6l.167.017.119.113c.306.289,1.831,1.786,1.7,2.986l-1.537,13.817a2.336,2.336,0,0,1-1.848,2.032A19.881,19.881,0,0,1,227.017,194.222Zm-9.835-5.864a1.3,1.3,0,0,0-.45.076,1.354,1.354,0,0,0-.821,1.726,1.35,1.35,0,0,0,.693.767,24.478,24.478,0,0,0,10.412,2.3,19.488,19.488,0,0,0,3.651-.3,1.347,1.347,0,0,0,1.067-1.175l1.537-13.817c.054-.484-.674-1.438-1.254-2.021a2.123,2.123,0,0,0-1.429,1.721l-1.424,12.787-.4.037a22.024,22.024,0,0,1-11-1.97A1.308,1.308,0,0,0,217.182,188.357Z" transform="translate(-214.841 -174.923)"/></g><g transform="translate(17.267 11.33)"><path d="M231.333,179.861s3.385,3.108,3.461,4.109,1.874,18.79-.357,20.077-7.571-1.141-10.6-3.178a5.938,5.938,0,0,1-2.287-6.345c1.9-8.479-.962-18.784-.962-18.784a1.5,1.5,0,0,1,1.274-.64c.617-.034-.136.391,1.092,1.1,0,0,1.557.042,1.534.47a3.634,3.634,0,0,0,1.7,3.374C228.483,181.508,231.333,179.861,231.333,179.861Z" transform="translate(-220.089 -174.645)" fill="#fff"/><path d="M233.137,205.161c-2.788,0-6.781-1.961-9.241-3.614a6.448,6.448,0,0,1-2.479-6.832c1.859-8.27-.928-18.459-.957-18.56l-.051-.178.088-.164a1.816,1.816,0,0,1,1.1-.79,2.407,2.407,0,0,1,.43-.082c.467-.048.365.815,1.1,1.361.62.458,2.131.6,2.128.778a3.161,3.161,0,0,0,1.489,2.87c2.032,1.291,4.65-.181,4.675-.2l.292-.167.249.226c.826.759,3.526,3.317,3.611,4.412l.04.458c1.7,18.713-.051,19.724-.625,20.055A3.687,3.687,0,0,1,233.137,205.161Zm-11.242-26.932c.739,3.549,1.806,10.537.422,16.69a5.454,5.454,0,0,0,2.1,5.861c3.464,2.329,8.318,4.2,10.115,3.159.3-.173,1.735-1.919.167-19.169l-.042-.473c-.034-.464-1.576-2.179-3.076-3.583-.843.4-3.252,1.33-5.324.014a4.155,4.155,0,0,1-1.913-3.821c.006-.147-1.013-.074-.993-.2-.575-.309-1.231-1.517-1.865-.552C221.286,176.454,221.81,177.819,221.895,178.229Z" transform="translate(-220.409 -174.938)"/></g><g transform="translate(15.505 33.962)"><path d="M239.7,218.051c-.045-.074-4.528-7.449-4.845-13.967-.342-7.112,2.058-9.509,1.859-14.137-.17-3.926-6.354-1.834-10.622-4.2a22.091,22.091,0,0,1-3.232-2.5c-.543,2.624-3.243,15.9-2.878,19.746.269,2.833.1,11.488.017,14.581a2.77,2.77,0,0,0,2.692,2.844l.079,0a2.767,2.767,0,0,0,2.765-2.692c.014-.47.314-11.51-.04-15.26-.142-1.477.9-8.36,1.22-9.858s2.513-.34,2.513,1.121-.11,6.334.1,10.616c.385,7.956,5.442,16.251,5.658,16.6a2.77,2.77,0,0,0,4.718-2.9Z" transform="translate(-219.488 -182.357)" fill="#f28500"/><path d="M237.638,223.311a3.213,3.213,0,0,1-2.751-1.537c-.218-.357-5.338-8.788-5.725-16.82-.164-3.458-.127-7.341-.1-9.425,0-.515.008-.931.008-1.214a1.535,1.535,0,0,0-1.206-1.356c-.19-.014-.331.031-.393.334a72.734,72.734,0,0,0-1.214,9.716c.345,3.643.076,14.12.042,15.3a3.216,3.216,0,0,1-3.226,3.156,3.256,3.256,0,0,1-3.232-3.32c.085-3.093.249-11.728-.014-14.527-.362-3.8,2.117-16.18,2.887-19.882l.164-.8.6.558a22.013,22.013,0,0,0,3.142,2.428,14.506,14.506,0,0,0,5.519,1.333c2.686.28,5.222.546,5.341,3.252a17.8,17.8,0,0,1-.821,5.592,25.4,25.4,0,0,0-1.039,8.544c.309,6.351,4.732,13.673,4.777,13.746a3.236,3.236,0,0,1-2.754,4.922Zm-9.843-31.277a1.536,1.536,0,0,1,.161.008,2.427,2.427,0,0,1,2.032,2.273c0,.286,0,.7-.008,1.223-.023,2.075-.059,5.941.1,9.371.376,7.8,5.377,16.036,5.59,16.381a2.312,2.312,0,0,0,3.173.756,2.316,2.316,0,0,0,.758-3.175h0c-.187-.306-4.591-7.6-4.908-14.182a26.219,26.219,0,0,1,1.064-8.822,16.717,16.717,0,0,0,.792-5.321c-.079-1.823-1.684-2.077-4.514-2.375a15.16,15.16,0,0,1-5.87-1.443,18.322,18.322,0,0,1-2.717-2.021c-.778,3.812-3.042,15.348-2.711,18.824.269,2.847.1,11.533.02,14.641A2.31,2.31,0,0,0,223,220.54h0a2.307,2.307,0,0,0,2.369-2.242c.031-1.189.3-11.612-.04-15.2-.15-1.576.945-8.652,1.231-10A1.227,1.227,0,0,1,227.795,192.034Z" transform="translate(-219.786 -182.935)"/></g><path d="M231.631,187.831a.462.462,0,0,1-.427-.286c-.071-.175-1.763-4.322-1.571-6.19.226-2.182-.122-7.9-1.511-8.759a4.851,4.851,0,0,0-4.891-.028,3.243,3.243,0,0,0-1.888,2.68c0,3.821.982,7.647,2.058,8.026a28.444,28.444,0,0,0,2.825.832.461.461,0,0,1-.2.9,29.524,29.524,0,0,1-2.926-.86c-1.95-.688-2.674-5.822-2.674-8.9a4.14,4.14,0,0,1,2.363-3.487,5.782,5.782,0,0,1,5.827.051c2.208,1.375,2.043,8.652,1.942,9.637-.142,1.361,1.039,4.61,1.506,5.745a.463.463,0,0,1-.252.6A.472.472,0,0,1,231.631,187.831Z" transform="translate(-203.12 -170.824)"/><g transform="translate(0 15.549)"><g transform="translate(0.064 6.026)"><path d="M217.833,189.3l-3.342-10.584,6.684,0Z" transform="translate(-214.037 -178.265)" fill="#f8ae4f"/><path d="M218.127,190.049a.456.456,0,0,1-.433-.317l-3.342-10.585a.453.453,0,0,1,.433-.589h0l6.682,0a.444.444,0,0,1,.365.184.451.451,0,0,1,.068.4l-3.342,10.582A.453.453,0,0,1,218.127,190.049ZM215.4,179.464l2.726,8.626,2.723-8.626Z" transform="translate(-214.331 -178.558)"/></g><path d="M220.288,183.632a5.342,5.342,0,0,1-4.823,0c-1.33-.77-1.33-2.015,0-2.785.665-.385,1.537-4.257,2.411-4.257s1.743,3.872,2.409,4.257C221.618,181.616,221.618,182.862,220.288,183.632Z" transform="translate(-214.016 -176.134)" fill="#fff"/><path d="M218.168,184.956a5.368,5.368,0,0,1-2.638-.64,1.911,1.911,0,0,1,0-3.566,7.883,7.883,0,0,0,.773-1.647c.659-1.656,1.1-2.674,1.865-2.674s1.206,1.016,1.865,2.674a7.478,7.478,0,0,0,.781,1.653,1.909,1.909,0,0,1-.011,3.56A5.356,5.356,0,0,1,218.168,184.956Zm-.048-7.627a11.26,11.26,0,0,0-.976,2.111c-.47,1.18-.756,1.859-1.16,2.094a1.032,1.032,0,0,0,0,2,4.916,4.916,0,0,0,4.367,0h0a1.032,1.032,0,0,0,0-2c-.4-.235-.691-.914-1.16-2.1A7.017,7.017,0,0,0,218.12,177.329Z" transform="translate(-214.308 -176.429)"/></g><g transform="translate(15.05 32.111)"><path d="M234.186,204.82s-2.069,1.548-7.2-1.415a19.48,19.48,0,0,1-7.2-6.9s1.01-15.388,2.6-13.973a28.63,28.63,0,0,0,4.6,3.393,16.417,16.417,0,0,0,7.2,2.355Z" transform="translate(-219.332 -181.988)" fill="#f8ae4f"/><path d="M232.728,205.962a11.623,11.623,0,0,1-5.675-1.874,19.725,19.725,0,0,1-7.375-7.081.466.466,0,0,1-.051-.241c.34-5.134,1.121-13.834,2.581-14.434a.727.727,0,0,1,.773.156,27.868,27.868,0,0,0,4.526,3.34,16.152,16.152,0,0,0,6.982,2.292.454.454,0,0,1,.444.453v16.54a.46.46,0,0,1-.181.362A3.535,3.535,0,0,1,232.728,205.962Zm-12.187-9.269a19.5,19.5,0,0,0,6.965,6.611c3.92,2.267,5.932,1.777,6.521,1.534V189a17.744,17.744,0,0,1-6.974-2.386,28.587,28.587,0,0,1-4.568-3.354C221.763,184.268,220.931,190.837,220.541,196.693Z" transform="translate(-219.626 -182.281)"/></g><g transform="translate(26.893 18.747)"><path d="M225.831,207.737a1.845,1.845,0,0,1-1.707-2.547c.026-.062,2.525-6.184,2.808-10.214.167-2.409-.566-7.243-1.225-10.854-.266-1.458.815-4.036,1.607-6.11.362-.951,1.092.8,1.308,1.8.093.442,2.315,10.831,1.992,15.425-.325,4.627-2.963,11.086-3.076,11.36A1.844,1.844,0,0,1,225.831,207.737Z" transform="translate(-223.49 -177.233)" fill="#fff"/><path d="M226.15,208.558a2.342,2.342,0,0,1-2.165-3.232c.023-.062,2.5-6.144,2.771-10.061.178-2.544-.688-7.814-1.22-10.729-.263-1.455.626-3.756,1.407-5.782l.229-.594c.218-.569.6-.634.77-.589.959.074,1.46,2.363,1.48,2.459s2.338,10.837,2.007,15.563c-.323,4.585-2.827,10.82-3.113,11.516A2.338,2.338,0,0,1,226.15,208.558Zm1.817-29.706-.1.258c-.7,1.811-1.571,4.067-1.356,5.25.541,2.958,1.418,8.321,1.234,10.978-.286,4.07-2.742,10.109-2.844,10.364a1.352,1.352,0,0,0,2.5,1.03c.11-.272,2.723-6.7,3.037-11.21.323-4.585-1.961-15.173-1.981-15.28A6,6,0,0,0,227.967,178.853Z" transform="translate(-223.81 -177.559)"/><g transform="translate(0.032 26.81)"><path d="M225.37,191.176a1.383,1.383,0,0,1-1.313-1.823l.4-1.211a1.384,1.384,0,0,1,2.626.875l-.4,1.211A1.385,1.385,0,0,1,225.37,191.176Z" transform="translate(-223.523 -186.732)" fill="#faaf48"/><path d="M225.668,191.937a1.8,1.8,0,0,1-.586-.1,1.843,1.843,0,0,1-1.166-2.332l.4-1.214a1.844,1.844,0,0,1,2.335-1.166,1.848,1.848,0,0,1,1.166,2.335l-.4,1.211A1.838,1.838,0,0,1,225.668,191.937Zm.4-3.982a.9.9,0,0,0-.408.1.916.916,0,0,0-.464.532l-.4,1.214a.923.923,0,0,0,1.752.583l.4-1.211a.927.927,0,0,0-.583-1.169A.989.989,0,0,0,226.068,187.955Z" transform="translate(-223.821 -187.032)"/></g></g><g transform="translate(26.521 17.453)"><path d="M224.543,197.953a.453.453,0,0,1-.45-.4c-.02-.2-2-19.472,2.881-20.443a.454.454,0,0,1,.175.892c-2.972.589-2.87,12.959-2.154,19.452a.452.452,0,0,1-.4.5Z" transform="translate(-223.679 -177.102)"/></g><g transform="translate(19.148 11.864)"><path d="M222.3,198.114l-.057,0a.453.453,0,0,1-.391-.509c.017-.153,1.936-15.388-.744-21.886a.449.449,0,0,1,.246-.589s.13.4.226.631c.1.252.563.125.654.393,2.343,7.033.594,20.955.515,21.566A.452.452,0,0,1,222.3,198.114Z" transform="translate(-221.074 -175.127)"/></g><g transform="translate(17.762)"><path d="M228.843,181.454c-.49-.076-.591-.487-.691-1.862a14.463,14.463,0,0,0-.19-1.684c-.071-.379-.26-1.384-1.03-1.384-.467,0-.821.408-1.16.8a2.652,2.652,0,0,1-.425.43c-.068-.042-.068-.042-.342-.546-.156-.283-.368-.665-.7-1.189-1-1.562-2.007-2.355-2.975-2.355a1.731,1.731,0,0,0-.427.054,3.666,3.666,0,0,1,3.855-2.607,14.589,14.589,0,0,1,1.956.167c2.176.3,3.88,4.115,4.22,6.17a4.759,4.759,0,0,1-1.084,3.4,1.446,1.446,0,0,1-.934.617Z" transform="translate(-220.007 -170.615)" fill="#fff"/><path d="M225.33,171.926a14.291,14.291,0,0,1,1.888.161c1.882.26,3.5,3.942,3.8,5.762a4.294,4.294,0,0,1-.909,2.915c-.328.416-.572.515-.659.515h0a4.217,4.217,0,0,1-.224-1.4,14.52,14.52,0,0,0-.2-1.741c-.224-1.186-.733-1.789-1.517-1.789a2.094,2.094,0,0,0-1.5.928c-.159-.289-.374-.679-.713-1.208-1.008-1.559-2-2.4-3.04-2.556a3.118,3.118,0,0,1,3.074-1.588Zm0-.991c-2.137,0-4.008.807-4.746,4.424a1.653,1.653,0,0,1,1.319-.88c.637,0,1.494.475,2.559,2.128.982,1.52.863,1.828,1.5,1.944l.04,0c.439,0,1.036-1.214,1.511-1.214.215,0,.408.252.543.982.368,1.933-.06,3.733,1.293,3.942a.776.776,0,0,0,.142.011c1.322,0,2.816-2.751,2.508-4.591-.317-1.9-2.038-6.221-4.642-6.58a15.132,15.132,0,0,0-2.024-.17Z" transform="translate(-220.584 -170.935)"/></g></g></g><g transform="translate(843.928 421.653)"><path d="M210.457,200.793c-1.311,0-1.492,1.229-2.056,1.39a7.194,7.194,0,0,0-1.516.611,16.017,16.017,0,0,0-5.585-1.608c-1.724-.245-1.784-1.613-10.641-1.613s-3.006,1.353-5.58,1.405c-5.509.113-8.027.208-9.967.208-6.93,0-12.549,1.234-12.549,2.042,0,.237-1.737,4.1-.876,4.293,1.121.258,7.256-3.019,7.256-3.019,1.821.118,3.927.187,6.169.187,3.1,0,7.462-.071,8.9-.066s2.642.734.75.837-1.316-.895-2.161-.829c-3.527.271-7.6,2.974-7.6,3.435,0,.308,6.188-.058,6.188-.058,2.777.432,6.4.858,10.012,1.145a20.511,20.511,0,0,0,5.445,1.095c8.172,0,10.359-2.574,11.225-3.314a11.205,11.205,0,0,0,3.708.59c3.385,0,6.13-1.29,6.13-2.879,0-1.3-1.837-2.4-4.361-2.756C212.786,201.809,211.768,200.793,210.457,200.793Z" transform="translate(-154.655 -137.002)" fill="#bbbdbf"/><g transform="translate(0 12.579)"><path d="M162.124,204.5a1.207,1.207,0,0,1-1.15-.837c-.1-.3-2.4-7.464-1.863-11.315.542-3.89,6.69-10.488,7.39-11.228a1.21,1.21,0,0,1,1.758,1.663c-1.753,1.855-6.382,7.248-6.751,9.9-.382,2.74,1.148,8.317,1.766,10.236a1.209,1.209,0,0,1-.776,1.524A1.23,1.23,0,0,1,162.124,204.5Z" transform="translate(-158.602 -180.312)" fill="#ffb136"/><path d="M162.389,205.192a1.631,1.631,0,0,1-1.558-1.134c-.1-.305-2.432-7.535-1.879-11.5.561-4.029,6.793-10.715,7.5-11.465a1.639,1.639,0,1,1,2.382,2.253c-2.4,2.54-6.322,7.409-6.638,9.664-.368,2.658,1.14,8.151,1.753,10.041a1.638,1.638,0,0,1-1.561,2.145Zm5.256-23.756a.776.776,0,0,0-.569.245c-2.5,2.642-6.848,7.933-7.275,10.991-.526,3.774,1.821,11.049,1.845,11.122a.782.782,0,0,0,1.44.113.779.779,0,0,0,.047-.595c-.632-1.942-2.179-7.606-1.784-10.428.463-3.327,6.8-10.064,6.861-10.133a.782.782,0,0,0-.032-1.105A.784.784,0,0,0,167.645,181.436Z" transform="translate(-158.867 -180.578)"/></g><path d="M172.094,186.445c1.232,1.629-4.358,1.687-6.343,1.687s-3.6-5.356-3.6-7.4h3.6C167.735,180.731,170.741,184.653,172.094,186.445Z" transform="translate(-153.504 -167.749)" fill="#fdb040"/><g transform="translate(2.232 65.203)"><path d="M161.832,205.514l-1.795-1.034c-.658-.382.892-3.535.892-3.535,1.232-.761,1.64.811,2.624.521,3.216-.947,5.04.142,5.04.142.661.382.576,1.045-.184,1.484l-4.008,2.313A2.857,2.857,0,0,1,161.832,205.514Z" transform="translate(-159.455 -200.306)" fill="#fff"/><path d="M163.21,206.464a2.7,2.7,0,0,1-1.334-.313l-1.792-1.034c-.669-.387-.426-1.763.721-4.1l.053-.111.105-.066a1.627,1.627,0,0,1,2.021.2c.34.245.5.34.708.274,3.356-.987,5.3.139,5.382.187a1.177,1.177,0,0,1,.653,1.013,1.468,1.468,0,0,1-.842,1.211l-4.008,2.313A3.4,3.4,0,0,1,163.21,206.464Zm-2.642-2.061,1.737,1.005a2.428,2.428,0,0,0,2.14-.108l4.011-2.313c.305-.176.413-.363.413-.468,0-.126-.161-.232-.229-.274a6.363,6.363,0,0,0-4.706-.1,1.6,1.6,0,0,1-1.45-.4c-.395-.282-.6-.413-.969-.224A8.008,8.008,0,0,0,160.568,204.4Z" transform="translate(-159.715 -200.572)"/></g><g transform="translate(17.769 65.872)"><path d="M167.924,205.748l-1.792-1.034c-.658-.382-.182-3.566-.182-3.566s6.409-.545,8.141.4,2.764.887-.505,2.571C173.009,204.417,168.585,206.127,167.924,205.748Z" transform="translate(-165.348 -200.558)" fill="#fff"/><path d="M168.481,206.486a1.01,1.01,0,0,1-.5-.1l-1.792-1.034c-.795-.458-.587-2.7-.392-4l.05-.337.337-.026c.669-.058,6.59-.529,8.383.45.247.137.482.25.69.353.671.329,1.155.566,1.161,1.076.005.532-.5.942-2.363,1.9C174.011,204.794,170.084,206.486,168.481,206.486Zm-.087-.85c.632.161,4.5-1.234,5.266-1.629a8.9,8.9,0,0,0,1.848-1.108,6.624,6.624,0,0,0-.632-.334c-.216-.108-.461-.229-.721-.371-1.25-.682-5.593-.521-7.559-.376a6.473,6.473,0,0,0,.042,2.811Z" transform="translate(-165.618 -200.827)"/></g><path d="M179.7,212.6a24.311,24.311,0,0,0-2.34-11.262l-.026-7.638s-13.762-9.212-13.762-6.353a74.239,74.239,0,0,0,.755,7.991,40.85,40.85,0,0,1,1.613,8.854c0,2.666-3.54,13.528-5.772,19.75a2.42,2.42,0,0,0,4.556,1.634c1.011-2.819,6.056-17.1,6.056-21.384a28.9,28.9,0,0,0-.6-5.485l.505.292s.416.787.566,1.074c2.566,4.922,3.677,8.759,3.608,12.436-.084,4.416,0,12.28,0,12.615a2.422,2.422,0,0,0,2.419,2.4h.026a2.421,2.421,0,0,0,2.4-2.445C179.7,225,179.619,216.95,179.7,212.6Z" transform="translate(-156.974 -157.843)"/><g transform="translate(6.664 12.412)"><path d="M174.469,204.955s-1.058,2.216-6.982-1.187-5.924-6.23-5.924-6.23v-15.82a1.039,1.039,0,0,1,1.555-.9s-.087,2.358,4.927,5.24,5.014.474,5.014.474a2.813,2.813,0,0,1,1.411,2.437Z" transform="translate(-161.133 -180.247)" fill="#f68900"/><path d="M173.019,206.364a12.024,12.024,0,0,1-5.48-1.958c-6.069-3.49-6.14-6.477-6.14-6.6v-15.82a1.467,1.467,0,0,1,2.2-1.271.428.428,0,0,1,.216.387c0,.013.055,2.177,4.711,4.853,2.835,1.629,3.824,1.413,4.114,1.242a.52.52,0,0,0,.258-.4.43.43,0,0,1,.213-.371.424.424,0,0,1,.429,0,3.246,3.246,0,0,1,1.627,2.808v15.986a.461.461,0,0,1-.042.187,1.757,1.757,0,0,1-1.092.813A3.374,3.374,0,0,1,173.019,206.364Zm-10.151-24.99a.616.616,0,0,0-.611.611v15.82c0,.018.142,2.656,5.709,5.856,3.416,1.963,5.069,1.948,5.748,1.758a1.193,1.193,0,0,0,.592-.329V189.236a2.4,2.4,0,0,0-.766-1.75,1.374,1.374,0,0,1-.471.455c-.945.545-2.571.14-4.972-1.242-4.182-2.406-4.966-4.527-5.111-5.311A.606.606,0,0,0,162.868,181.374Z" transform="translate(-161.399 -180.514)"/></g><g transform="translate(8.071 1.015)"><path d="M172.452,193.6s-3.874-3.137-.011-5.853c2.006-1.408,1.7-2.929,2.174-7.1s-4.969-5.393-6.877-3.3-.479,7.8-.479,7.8,0,3.3-4.748,2.735C159.024,187.475,172.452,193.6,172.452,193.6Z" transform="translate(-161.933 -175.919)" fill="#fdb040"/><path d="M171.854,194.2c-.079-.066-1.948-1.6-1.882-3.569a3.834,3.834,0,0,1,1.9-2.969c1.458-1.026,1.555-2.1,1.784-4.682.055-.621.118-1.319.208-2.116a3.218,3.218,0,0,0-1.969-3.424,3.805,3.805,0,0,0-4.166.469c-1.44,1.582-.761,5.882-.379,7.406l.013.1a3.238,3.238,0,0,1-1.069,2.25,5.152,5.152,0,0,1-4.158.911l.1-.853a4.381,4.381,0,0,0,3.477-.692,2.365,2.365,0,0,0,.79-1.571c-.161-.666-1.363-5.985.592-8.133a4.625,4.625,0,0,1,5.153-.671,4.052,4.052,0,0,1,2.469,4.3c-.089.787-.15,1.479-.205,2.1-.24,2.7-.361,4.053-2.148,5.306a3.042,3.042,0,0,0-1.532,2.292,4.275,4.275,0,0,0,1.566,2.877Z" transform="translate(-161.606 -176.184)"/></g><g transform="translate(9.073 4.122)"><path d="M169.973,181.921a6.863,6.863,0,0,1-6.209,0c-1.716-.992-1.716-2.6,0-3.585a5.1,5.1,0,0,1,1.277-.513c1.619-.429,6.522-.447,7.854.321C174.61,179.134,171.686,180.929,169.973,181.921Z" transform="translate(-162.048 -177.098)" fill="#f68900"/><path d="M167.133,183.364a6.763,6.763,0,0,1-3.319-.805,2.31,2.31,0,0,1,0-4.327,5.62,5.62,0,0,1,1.382-.558c1.629-.429,6.685-.5,8.18.366a1.253,1.253,0,0,1,.734,1.1c0,1.148-1.758,2.321-3.658,3.419h0A6.756,6.756,0,0,1,167.133,183.364Zm1.577-5.14a15.261,15.261,0,0,0-3.293.279,4.736,4.736,0,0,0-1.174.471,1.478,1.478,0,0,0,0,2.842,6.405,6.405,0,0,0,5.78,0c2.669-1.542,3.229-2.308,3.229-2.677,0-.045,0-.182-.305-.358A11.37,11.37,0,0,0,168.71,178.224Z" transform="translate(-162.314 -177.365)"/></g><g transform="translate(11.655)"><ellipse cx="4.914" cy="3.518" rx="4.914" ry="3.518" transform="translate(0 0.393)" fill="#faaf48"/><path d="M168.135,183.622a6.726,6.726,0,0,1-3.3-.8,3.986,3.986,0,0,1,0-6.219,7.191,7.191,0,0,1,6.6,0,3.986,3.986,0,0,1,0,6.219h0A6.709,6.709,0,0,1,168.135,183.622Zm0-6.964a5.893,5.893,0,0,0-2.871.684,3.167,3.167,0,0,0,0,4.735,6.355,6.355,0,0,0,5.74,0h0a3.167,3.167,0,0,0,0-4.735A5.883,5.883,0,0,0,168.135,176.658Z" transform="translate(-163.219 -175.798)"/></g><g transform="translate(6.88 12.204)"><path d="M162.923,188.675a.808.808,0,0,1-.771-.566c-.205-.653-1.919-6.424,1.09-7.617a.807.807,0,0,1,.595,1.5c-1.155.458-.769,3.635-.145,5.635a.806.806,0,0,1-.529,1.011A.84.84,0,0,1,162.923,188.675Z" transform="translate(-161.481 -180.436)"/></g><g transform="translate(5.18 19.2)"><g transform="translate(0 1.772)"><path d="M166.293,199.484l-3.816-2.206A2.958,2.958,0,0,1,161,194.718v-9.725a1.061,1.061,0,0,1,1.592-.919l4.711,2.719a2.97,2.97,0,0,1,1.484,2.569v8.683A1.663,1.663,0,0,1,166.293,199.484Z" transform="translate(-160.569 -183.5)" fill="#fff"/><path d="M167.391,200.406a2.08,2.08,0,0,1-1.045-.284l-3.819-2.206a3.393,3.393,0,0,1-1.692-2.932V185.26a1.491,1.491,0,0,1,2.237-1.29l4.711,2.719a3.405,3.405,0,0,1,1.7,2.94v8.683a2.1,2.1,0,0,1-2.09,2.1Zm-5.066-15.781a.637.637,0,0,0-.632.634v9.725a2.536,2.536,0,0,0,1.263,2.19l3.819,2.206a1.232,1.232,0,0,0,1.848-1.069v-8.683a2.549,2.549,0,0,0-1.269-2.2l-4.711-2.719A.63.63,0,0,0,162.325,184.625Z" transform="translate(-160.835 -183.767)"/></g><g transform="translate(1.079 7.768)"><path d="M165.161,193.566,162.455,192a2.1,2.1,0,0,1-1.047-1.816v-3.224a.753.753,0,0,1,1.129-.653l3.337,1.927a2.1,2.1,0,0,1,1.053,1.821v2.49A1.177,1.177,0,0,1,165.161,193.566Z" transform="translate(-160.979 -185.778)" fill="#fff"/><path d="M166.017,194.423a1.6,1.6,0,0,1-.8-.218l-2.706-1.563a2.529,2.529,0,0,1-1.263-2.187V187.23a1.18,1.18,0,0,1,1.771-1.024l3.34,1.927a2.535,2.535,0,0,1,1.266,2.192v2.49a1.592,1.592,0,0,1-.8,1.39A1.616,1.616,0,0,1,166.017,194.423Zm-.374-.961a.75.75,0,0,0,1.121-.647v-2.49a1.677,1.677,0,0,0-.837-1.448l-3.34-1.929a.322.322,0,0,0-.484.282v3.224a1.67,1.67,0,0,0,.834,1.445Z" transform="translate(-161.245 -186.045)"/></g><g transform="translate(7.788 4.695)"><path d="M165.178,197.29h0c-.674.39-1.221-.026-1.221-.926v-8.838a2.929,2.929,0,0,1,1.221-2.337h0c.676-.392,1.224.024,1.224.924v8.841A2.932,2.932,0,0,1,165.178,197.29Z" transform="translate(-163.528 -184.61)" fill="#fff"/><path d="M164.96,198.133a1.043,1.043,0,0,1-.529-.142,1.5,1.5,0,0,1-.637-1.361v-8.838a3.343,3.343,0,0,1,1.437-2.708,1.19,1.19,0,0,1,1.229-.066,1.5,1.5,0,0,1,.637,1.361v8.841a3.358,3.358,0,0,1-1.437,2.708h0A1.4,1.4,0,0,1,164.96,198.133Zm.969-12.4a.612.612,0,0,0-.268.09,2.5,2.5,0,0,0-1.008,1.966v8.838c0,.368.111.563.208.618.116.066.282-.013.371-.063h0a2.514,2.514,0,0,0,1.008-1.966v-8.841c0-.366-.111-.563-.208-.618A.226.226,0,0,0,165.928,185.737Z" transform="translate(-163.794 -184.877)"/></g><g transform="translate(0.708)"><path d="M167.407,188.185l-5.756-3.335c-.568-.329-.5-.9.158-1.282h0a2.479,2.479,0,0,1,2.221-.092l5.756,3.335c.568.329.5.9-.161,1.282h0A2.456,2.456,0,0,1,167.407,188.185Z" transform="translate(-160.838 -182.828)" fill="#fff"/><path d="M168.639,189.1a2.419,2.419,0,0,1-1.182-.276h0l-5.756-3.337a1.082,1.082,0,0,1-.6-.926,1.328,1.328,0,0,1,.758-1.1,2.9,2.9,0,0,1,2.648-.092l5.759,3.335a1.089,1.089,0,0,1,.6.929,1.327,1.327,0,0,1-.758,1.1A3.033,3.033,0,0,1,168.639,189.1Zm-.753-1.021a2.06,2.06,0,0,0,1.792-.092c.226-.129.329-.274.329-.353,0-.055-.066-.124-.171-.187l-5.756-3.335a2.081,2.081,0,0,0-1.79.092c-.226.132-.329.276-.329.355,0,.053.063.124.168.184Z" transform="translate(-161.104 -183.094)"/></g></g><g transform="translate(14.413 18.119)"><path d="M165.151,189.458a.805.805,0,0,1-.808-.795,6.21,6.21,0,0,1,4.282-5.945.807.807,0,0,1,.468,1.545,4.633,4.633,0,0,0-3.137,4.387.8.8,0,0,1-.8.808Z" transform="translate(-164.343 -182.683)"/></g><g transform="translate(16.957 18.991)"><path d="M173.265,196.206a5,5,0,0,1-3.227-.974c-3.329-2.708-4.437-9.867-4.553-10.675a1.21,1.21,0,1,1,2.395-.342c.279,1.934,1.484,7.351,3.687,9.141,1.661,1.355,5.6.142,8.917-1.724a1.209,1.209,0,1,1,1.19,2.105A17.99,17.99,0,0,1,173.265,196.206Z" transform="translate(-165.044 -182.749)" fill="#fdb040"/><path d="M173.53,196.9a5.4,5.4,0,0,1-3.5-1.069c-3.448-2.806-4.587-10.122-4.706-10.949a1.639,1.639,0,0,1,3.245-.466c.253,1.763,1.448,7.175,3.532,8.872,1.495,1.221,5.314-.008,8.435-1.766a1.638,1.638,0,1,1,1.611,2.853A18.1,18.1,0,0,1,173.53,196.9Zm-6.582-13.028a.779.779,0,0,0-.771.89c.113.792,1.2,7.8,4.4,10.4a4.578,4.578,0,0,0,2.956.876,17.258,17.258,0,0,0,8.2-2.413.772.772,0,0,0,.368-.468.782.782,0,0,0-1.137-.89c-3.277,1.845-7.469,3.258-9.4,1.684-2.782-2.263-3.829-9.343-3.84-9.414A.781.781,0,0,0,166.948,183.872Z" transform="translate(-165.31 -183.014)"/></g><g transform="translate(31.005 25.71)"><path d="M171.962,189.942a1.209,1.209,0,0,1-1.055-.618c-.326-.582.224-3.34.895-3.569s.826,1.216.826,1.216l1.229-.692a1.21,1.21,0,1,1,1.184,2.111l-2.487,1.4A1.2,1.2,0,0,1,171.962,189.942Z" transform="translate(-170.381 -185.302)" fill="#fdb040"/><path d="M172.229,190.636a1.641,1.641,0,0,1-1.429-.837c-.342-.608-.047-2.221.29-3.1.237-.618.511-.971.842-1.084a.809.809,0,0,1,.708.079,1.53,1.53,0,0,1,.558.879l.716-.4a1.639,1.639,0,1,1,1.605,2.858l-2.487,1.4A1.639,1.639,0,0,1,172.229,190.636Zm-.053-4.219a5.224,5.224,0,0,0-.626,2.964.8.8,0,0,0,1.061.3l2.487-1.4a.784.784,0,0,0,.371-.471.782.782,0,0,0-1.134-.892l-1.229.692a.428.428,0,0,1-.637-.329A1.687,1.687,0,0,0,172.176,186.417Z" transform="translate(-170.647 -185.567)"/></g><g transform="translate(1.625 33.245)"><path d="M161.7,193.351a1.206,1.206,0,0,1-1.021-.755l-.942-2.356a1.205,1.205,0,0,1,.671-1.571c.621-.25,2.477.134,2.737.737.213.495-.768.921-.768.921l.55,1.369a1.212,1.212,0,0,1-.674,1.574A1.191,1.191,0,0,1,161.7,193.351Z" transform="translate(-159.218 -188.166)" fill="#ffb136"/><path d="M162.068,194.049c-.047,0-.095,0-.14-.005a1.633,1.633,0,0,1-1.382-1.024l-.945-2.356a1.642,1.642,0,0,1,.911-2.132c.792-.313,2.921.113,3.29.969.226.524-.139.984-.619,1.287l.405,1.013a1.639,1.639,0,0,1-1.521,2.248Zm-.863-4.772a1.046,1.046,0,0,0-.371.053.782.782,0,0,0-.434,1.016l.945,2.356a.779.779,0,0,0,.658.487h0a.78.78,0,0,0,.79-1.069l-.547-1.371a.427.427,0,0,1,.226-.553,1.294,1.294,0,0,0,.542-.4A3.313,3.313,0,0,0,161.2,189.277Z" transform="translate(-159.484 -188.43)"/></g></g><g transform="translate(881.475 439.122)"><path d="M222.242,210.573a9.751,9.751,0,0,0-3.822,1.169s-2.582-1.958-4.148-2.182c-1.832-.261-3.821-1.321-10.649-1.321-9.422,0-6.543,1.437-9.28,1.495-5.859.121-9.122.221-11.188.221-7.375,0-9.849,5.83-7.435,5.83s4.077-2.1,11.973-2.1c3.3,0,4.1-.076,5.624-.071l.516,1.808c-.942.05-2.208.04-4.38.018-.745-.008-.508-2.25-1.85-2.25-1.577,0-4.114,2.206-4.448,2.232-3.753.287-2.087,3.437-2.087,3.437s7.277,0,15.7.732c1.111.1,4.937,1.087,5.977.992,3.108-.282,5.459-1.784,7.154-1.784,6.34,0,8.125-.816,9.788-2.458.553-.545,1.316.358,3.635.358s5.438-1.371,5.438-3.061S225.842,210.573,222.242,210.573Z" transform="translate(-170.369 -140.328)" fill="#bbbdbf"/><path d="M179.879,190.341a2.244,2.244,0,1,1-2.2-2.711A2.493,2.493,0,0,1,179.879,190.341Z" transform="translate(-169.288 -173.959)" fill="#faaf48"/><g transform="translate(20.369 21.42)"><path d="M185.241,197.061a3.1,3.1,0,0,1-2.8,0,.981.981,0,0,1-.582-.808c0-.295-.821-5.488-.821-5.488l5.606-.029s-.819,5.222-.819,5.514A.981.981,0,0,1,185.241,197.061Z" transform="translate(-180.606 -190.308)" fill="#f88b00"/><path d="M184.106,198.093a3.3,3.3,0,0,1-1.619-.392,1.414,1.414,0,0,1-.795-1.182c-.013-.268-.508-3.469-.816-5.419a.431.431,0,0,1,.1-.345.441.441,0,0,1,.324-.153l5.609-.029h0a.43.43,0,0,1,.326.15.435.435,0,0,1,.1.347c-.311,1.961-.8,5.18-.816,5.453a1.406,1.406,0,0,1-.795,1.174v0A3.3,3.3,0,0,1,184.106,198.093Zm-2.3-6.632c.245,1.566.747,4.787.747,5.059,0,.14.137.305.366.437a2.684,2.684,0,0,0,2.377,0h0c.229-.132.366-.3.366-.44,0-.268.5-3.506.747-5.082Z" transform="translate(-180.872 -190.574)"/></g><g transform="translate(20.371 19.8)"><ellipse cx="2.803" cy="1.618" rx="2.803" ry="1.618" transform="translate(0.428 0.431)" fill="#fff"/><path d="M184.1,194.057a4.444,4.444,0,0,1-2.2-.534,1.626,1.626,0,0,1,0-3.029,4.776,4.776,0,0,1,4.393,0,1.625,1.625,0,0,1,0,3.029h0A4.447,4.447,0,0,1,184.1,194.057Zm0-3.237a3.633,3.633,0,0,0-1.766.416c-.387.224-.605.505-.605.771s.218.55.605.774a3.975,3.975,0,0,0,3.535,0h0c.384-.224.605-.505.605-.774s-.221-.547-.605-.771A3.637,3.637,0,0,0,184.1,190.82Z" transform="translate(-180.873 -189.959)"/></g><g transform="translate(18.273 17.059)"><path d="M184.9,194.06a.43.43,0,0,1-.411-.3c-.542-1.74-1.369-3.745-1.737-3.953a16.232,16.232,0,0,0-2.221.016.427.427,0,0,1-.458-.4.432.432,0,0,1,.4-.458,16.69,16.69,0,0,1,2.45.005c.676.095,1.479,1.621,2.387,4.535a.43.43,0,0,1-.284.537A.408.408,0,0,1,184.9,194.06Z" transform="translate(-180.076 -188.917)"/></g><g transform="translate(7.829 72.592)"><path d="M177.094,214.729a3.133,3.133,0,0,0,1.769.605c.795-.134,1.811-1.248,2.769-1.684.39-.182,1.632-.179,2.016-.4,2.192-1.266,1.895-2.561,1.024-3.064,0,0-.992.129-3.919.466a19.722,19.722,0,0,0-3.872.808A2.237,2.237,0,0,0,177.094,214.729Z" transform="translate(-175.84 -209.741)" fill="#f88b00"/><path d="M178.956,216.052a3.736,3.736,0,0,1-1.824-.687,2.353,2.353,0,0,1-1-1.753,2.558,2.558,0,0,1,.721-2.19c.49-.463,4.085-.916,4.119-.921,2.919-.337,3.911-.466,3.914-.466l.145-.018.126.074a1.65,1.65,0,0,1,.866,1.421c0,.59-.326,1.482-1.892,2.384a3.678,3.678,0,0,1-1.253.282,4.379,4.379,0,0,0-.8.137,7.179,7.179,0,0,0-1.187.776,4.426,4.426,0,0,1-1.69.94A1.265,1.265,0,0,1,178.956,216.052Zm5.88-5.145c-.382.047-1.49.184-3.766.447a23.039,23.039,0,0,0-3.653.713,1.713,1.713,0,0,0-.434,1.442,1.513,1.513,0,0,0,.595,1.124l.032.021a2.6,2.6,0,0,0,1.45.532,4.111,4.111,0,0,0,1.319-.784,7.812,7.812,0,0,1,1.342-.869,4.037,4.037,0,0,1,1.053-.208,4.269,4.269,0,0,0,.926-.171c.932-.537,1.463-1.137,1.463-1.642A.763.763,0,0,0,184.836,210.907Z" transform="translate(-176.108 -210.017)"/></g><g transform="translate(2.196 69.285)"><path d="M175.031,213.561a3.461,3.461,0,0,0,2.079.721c.782-.147,1.453-1.25,2.377-1.676.376-.176.755-.371,1.126-.584,2.192-1.266,2.745-2.358,1.874-2.861-.726-.418-2.213-.3-3.956.484-.35.155-3.522.532-3.824.829A2.021,2.021,0,0,0,175.031,213.561Z" transform="translate(-173.701 -208.496)" fill="#f88b00"/><path d="M177.14,214.994a3.917,3.917,0,0,1-1.908-.705l-.15-.092a2.393,2.393,0,0,1-1.095-1.771,2.327,2.327,0,0,1,.687-1.995c.242-.237.855-.371,2.7-.679.5-.087,1.129-.192,1.253-.237,1.779-.8,3.443-.979,4.337-.461a1.106,1.106,0,0,1,.611.969c0,.995-1.353,1.982-2.485,2.634-.374.219-.766.421-1.161.6a4.478,4.478,0,0,0-1.045.79,3.108,3.108,0,0,1-1.432.919A1.826,1.826,0,0,1,177.14,214.994Zm-1.627-1.54.168.1a2.865,2.865,0,0,0,1.616.566,2.643,2.643,0,0,0,1.011-.705,5.107,5.107,0,0,1,1.263-.937c.374-.171.74-.363,1.092-.566,1.516-.876,2.056-1.566,2.056-1.892,0-.037,0-.121-.182-.226-.532-.305-1.84-.271-3.564.5a8.669,8.669,0,0,1-1.455.3,15.776,15.776,0,0,0-2.282.479,1.475,1.475,0,0,0-.4,1.245,1.567,1.567,0,0,0,.674,1.134Z" transform="translate(-173.967 -208.761)"/></g><g transform="translate(0 12.263)"><path d="M179.312,206.021a1.294,1.294,0,0,1-.518-.111,19.843,19.843,0,0,1-4.864-2.942c-.453-.469-1.653-1.708,1.266-14.7a1.288,1.288,0,0,1,2.514.563c-1.134,5.04-2.124,11.125-1.813,12.462a18.867,18.867,0,0,0,3.937,2.266,1.288,1.288,0,0,1-.521,2.466Z" transform="translate(-172.863 -186.829)" fill="#fdb040"/><path d="M179.581,206.713a1.7,1.7,0,0,1-.692-.145,19.716,19.716,0,0,1-5-3.037c-.587-.608-1.813-1.871,1.158-15.1a1.717,1.717,0,1,1,3.35.753c-1.2,5.345-2.019,10.775-1.837,12.144a20,20,0,0,0,3.716,2.1,1.716,1.716,0,0,1-.695,3.285Zm-2.861-18.76a.859.859,0,0,0-.837.669c-1.9,8.477-2.366,13.291-1.377,14.312a19.41,19.41,0,0,0,4.73,2.85.875.875,0,0,0,1.132-.439.855.855,0,0,0-.44-1.132,19.1,19.1,0,0,1-4.053-2.34l-.1-.092-.029-.129c-.34-1.466.679-7.614,1.811-12.654a.83.83,0,0,0-.111-.645.851.851,0,0,0-.537-.379A.774.774,0,0,0,176.72,187.953Z" transform="translate(-173.133 -187.095)"/></g><g transform="translate(2.363 44.511)"><path d="M176.626,227.43a2,2,0,0,1-2-1.969l-.432-23.908a2,2,0,1,1,4.008-.071l.429,23.908a2.006,2.006,0,0,1-1.969,2.04Z" transform="translate(-173.765 -199.08)" fill="#fdb040"/><path d="M176.895,228.126a2.451,2.451,0,0,1-2.435-2.39l-.429-23.908a2.439,2.439,0,0,1,2.39-2.477,2.3,2.3,0,0,1,1.7.653,2.465,2.465,0,0,1,.776,1.737l.429,23.908a2.431,2.431,0,0,1-2.39,2.474Zm-.39-27.917h-.061a1.582,1.582,0,0,0-1.555,1.6l.429,23.908a1.587,1.587,0,0,0,1.576,1.548v.429l.011-.429a1.585,1.585,0,0,0,1.121-.482,1.566,1.566,0,0,0,.442-1.121l-.429-23.908a1.606,1.606,0,0,0-.505-1.129A1.5,1.5,0,0,0,176.505,200.209Z" transform="translate(-174.031 -199.348)"/></g><g transform="translate(8.257 45.95)"><path d="M178.438,229.678l-.074,0a2,2,0,0,1-1.929-2.077l.953-25.609a2,2,0,1,1,4,.147l-.953,25.611A2,2,0,0,1,178.438,229.678Z" transform="translate(-176.004 -199.628)" fill="#faaf48"/><path d="M178.707,230.373l-.105,0a2.434,2.434,0,0,1-2.329-2.521l.953-25.611a2.43,2.43,0,0,1,.792-1.713,2.38,2.38,0,0,1,1.734-.626,2.433,2.433,0,0,1,2.334,2.521l-.953,25.611A2.421,2.421,0,0,1,178.707,230.373Zm.926-29.62a1.52,1.52,0,0,0-1.037.405,1.576,1.576,0,0,0-.513,1.113l-.953,25.609a1.576,1.576,0,0,0,1.516,1.632l.061.432v-.429A1.565,1.565,0,0,0,180.275,228l.953-25.611a1.574,1.574,0,0,0-1.513-1.632Z" transform="translate(-176.27 -199.895)"/></g><g transform="translate(0.41 11.896)"><path d="M184.169,228.929a28.147,28.147,0,0,1-3.256-1.663c-6.306-3.666-6.306-5.58-6.306-5.58-3.516-12.391,2.095-14.533,2.095-18.731s-2.095-5.885-2.095-14.207a1.477,1.477,0,0,1,2.361-1.358l1.85,1.076a2.856,2.856,0,0,0,1.34,2.848,3.178,3.178,0,0,0,3.264-.171l1.745,1.013a4.116,4.116,0,0,1,2.053,3.572c0,4.224-1.405,5.748-1.405,8.9,0,5.477,4.548,5.045,1.919,21.474C187.656,226.566,187.219,230.2,184.169,228.929Z" transform="translate(-173.027 -186.691)" fill="#fff"/><path d="M185.618,229.891a3.547,3.547,0,0,1-1.353-.3h0a28.777,28.777,0,0,1-3.3-1.69c-5.872-3.414-6.461-5.419-6.517-5.872-2.427-8.591-.5-12.428.911-15.231a8.106,8.106,0,0,0,1.179-3.582,15.7,15.7,0,0,0-.769-4.472,32.305,32.305,0,0,1-1.326-9.733,1.983,1.983,0,0,1,.916-1.821,2.1,2.1,0,0,1,2.09.095l2.108,1.224-.053.295a2.407,2.407,0,0,0,1.134,2.4,2.739,2.739,0,0,0,2.8-.147l.226-.158,1.979,1.15a4.519,4.519,0,0,1,2.271,3.945,18.13,18.13,0,0,1-.8,5.245,13.1,13.1,0,0,0-.611,3.65,9.616,9.616,0,0,0,1.029,4.14c1.187,2.792,2.666,6.269.884,17.4-.25,1.634-.808,2.682-1.674,3.169A2.231,2.231,0,0,1,185.618,229.891Zm-10.32-7.94s.255,1.813,6.093,5.209a28.571,28.571,0,0,0,3.2,1.64h0a1.946,1.946,0,0,0,1.729.055c.429-.24.99-.869,1.237-2.5,1.753-10.949.329-14.3-.816-16.992a10.441,10.441,0,0,1-1.1-4.477,13.75,13.75,0,0,1,.642-3.874,17.211,17.211,0,0,0,.766-5.022,3.669,3.669,0,0,0-1.84-3.2l-1.524-.884a3.513,3.513,0,0,1-3.485.042,3.189,3.189,0,0,1-1.577-2.985l-1.613-.937a1.25,1.25,0,0,0-1.229-.095,1.155,1.155,0,0,0-.487,1.079,31.44,31.44,0,0,0,1.3,9.506,16.391,16.391,0,0,1,.8,4.7,8.67,8.67,0,0,1-1.271,3.966c-1.421,2.832-3.193,6.356-.84,14.649l.016.118Z" transform="translate(-173.289 -186.956)"/></g><g transform="translate(11.12 18.662)"><path d="M182.063,204.366a2.012,2.012,0,0,1-1.466-.608c-1.605-1.674-2.679-9.388-3.066-12.628a1.287,1.287,0,1,1,2.556-.305c.524,4.372,1.495,9.506,2.206,10.9,1.063-.45,3.622-2.864,5.8-5.509a1.287,1.287,0,0,1,1.987,1.637c-1.59,1.929-5.543,6.425-7.93,6.514Z" transform="translate(-177.092 -189.26)" fill="#faaf48"/><path d="M182.329,205.062a2.442,2.442,0,0,1-1.777-.74c-1.634-1.705-2.7-8.8-3.182-12.875a1.716,1.716,0,1,1,3.408-.408,59.6,59.6,0,0,0,1.987,10.346,29.008,29.008,0,0,0,5.261-5.18,1.716,1.716,0,1,1,2.648,2.184c-2.019,2.45-5.772,6.577-8.243,6.669Zm-3.253-14.676a.705.705,0,0,0-.105.005.86.86,0,0,0-.75.953c.8,6.656,1.9,11.286,2.953,12.383a1.578,1.578,0,0,0,1.155.476l.074,0c1.534-.058,4.379-2.435,7.612-6.359a.86.86,0,0,0-.118-1.208.869.869,0,0,0-.629-.192.855.855,0,0,0-.576.308c-2.206,2.677-4.824,5.148-5.964,5.63l-.368.158-.182-.355c-.758-1.482-1.74-6.777-2.25-11.041a.853.853,0,0,0-.85-.755Z" transform="translate(-177.358 -189.526)"/></g><g transform="translate(5.771 0.539)"><path d="M175.64,195.506c1.495-1.858,1.119-3.09,1.119-3.09a22.1,22.1,0,0,1-.54-5.58c.239-2.113,1.827-4.453,3.919-3.969s4.935.876,4.935,4.4c0,9.333-3.7,8.222-3.7,8.222l-1.342,2.729S174.145,197.365,175.64,195.506Z" transform="translate(-175.209 -182.374)" fill="#f8ae4f"/><path d="M180.146,198.912a.444.444,0,0,1-.189-.045.427.427,0,0,1-.195-.574l1.34-2.729a.427.427,0,0,1,.508-.221,1.515,1.515,0,0,0,1.237-.342c.874-.669,1.913-2.508,1.913-7.469,0-2.953-2.132-3.427-4.193-3.887l-.411-.092a2,2,0,0,0-1.671.358,4.789,4.789,0,0,0-1.724,3.24,21.76,21.76,0,0,0,.532,5.438c.008.029.413,1.442-1.2,3.453a.429.429,0,1,1-.668-.537c1.305-1.627,1.042-2.7,1.04-2.7a22.181,22.181,0,0,1-.553-5.745,5.613,5.613,0,0,1,2.079-3.845,2.874,2.874,0,0,1,2.361-.495l.405.089c2.053.458,4.864,1.087,4.864,4.727,0,4.3-.766,7.048-2.282,8.177a2.492,2.492,0,0,1-1.6.511l-1.205,2.453A.43.43,0,0,1,180.146,198.912Z" transform="translate(-175.325 -182.641)"/></g><path d="M185.227,185.613c.421,2.092-1.842,4.29-2.914,5.935s-3.658,4.364-4.185,7.44.411,10.744.153,12.238-2.727,4.282-2.727,4.282,1.358-4.3,1.269-6.051-1.508-7.7-1.521-10.328a11.835,11.835,0,0,1,1.616-5.3s-1.616-3.785-1.616-5.932,1.34-5.1,4.114-5.435C181.777,182.179,184.9,184,185.227,185.613Z" transform="translate(-169.593 -182.436)"/><g transform="translate(21.506 23.895)"><path d="M182.349,195.058a.863.863,0,0,1-.792-.524,3.478,3.478,0,0,1,.374-2.524c.474-.474.942.858,1.124.695a7.326,7.326,0,0,0,.634-.69.859.859,0,0,1,1.366,1.042,7.665,7.665,0,0,1-2.371,1.932A.894.894,0,0,1,182.349,195.058Z" transform="translate(-181.039 -191.248)" fill="#fdb040"/><path d="M182.614,195.753a1.29,1.29,0,0,1-1.187-.784,3.794,3.794,0,0,1,.466-3,.693.693,0,0,1,.574-.224,1.261,1.261,0,0,1,.84.629c.118-.129.24-.263.308-.355a1.287,1.287,0,0,1,2.045,1.563,7.964,7.964,0,0,1-2.545,2.066A1.269,1.269,0,0,1,182.614,195.753Zm-.176-3.09a3.572,3.572,0,0,0-.221,1.969.431.431,0,0,0,.566.226,7.359,7.359,0,0,0,2.2-1.795.421.421,0,0,0,.084-.318.438.438,0,0,0-.163-.284.425.425,0,0,0-.318-.084.435.435,0,0,0-.284.166,7.333,7.333,0,0,1-.69.747l-.142.129-.232-.005c-.258-.026-.405-.232-.574-.466A3.121,3.121,0,0,0,182.438,192.664Z" transform="translate(-181.304 -191.514)"/></g></g><g transform="translate(978.023 463.939)"><path d="M273.746,234.071a9.735,9.735,0,0,0-3.822,1.171s-2.582-1.961-4.148-2.182c-1.835-.261-3.824-1.321-10.649-1.321-9.422,0-6.543,1.437-9.28,1.495-5.861.121-9.125.221-11.188.221-7.375,0-4.564,5.316-2.15,5.316s5.674-1.59,7.809-1.59,2.977-.076,4.5-.071l.516,1.808c-.942.053-2.211.039-4.38.021-.747-.008-11.333-.047-11.667-.021-3.753.29-2.09,2.961-2.09,2.961s12.646.479,21.076,1.211c1.111.095,4.935,1.084,5.977.99,3.106-.279,5.456-1.784,7.154-1.784,6.34,0,8.122-.813,9.785-2.456.555-.547,1.319.358,3.637.358s5.435-1.371,5.435-3.064S277.347,234.071,273.746,234.071Z" transform="translate(-211.046 -162.794)" fill="#bbbdbf"/><g transform="translate(0 0)"><path d="M227.006,213.62a2.245,2.245,0,1,0,2.2-2.708A2.5,2.5,0,0,0,227.006,213.62Z" transform="translate(-210.764 -196.782)" fill="#ed8063"/><g transform="translate(0 21.878)"><path d="M222.4,220.343a3.1,3.1,0,0,0,2.806,0,.99.99,0,0,0,.582-.811c0-.292.819-5.485.819-5.485L221,214.019s.819,5.222.819,5.514A.99.99,0,0,0,222.4,220.343Z" transform="translate(-220.569 -213.59)" fill="#f48700"/><path d="M222.451,220.981h0a1.412,1.412,0,0,1-.8-1.174c-.011-.276-.505-3.493-.813-5.456a.428.428,0,0,1,.424-.495h0l5.606.029a.421.421,0,0,1,.324.15.427.427,0,0,1,.1.347c-.308,1.95-.8,5.151-.813,5.416a1.41,1.41,0,0,1-.795,1.182,3.531,3.531,0,0,1-3.235,0Zm-.684-6.264c.245,1.576.747,4.814.747,5.082,0,.142.134.305.366.44h0a2.684,2.684,0,0,0,2.377,0c.229-.134.366-.3.366-.44,0-.268.5-3.493.747-5.059Z" transform="translate(-220.835 -213.856)"/></g><g transform="translate(0 20.257)"><path d="M221.819,216.167a4.382,4.382,0,0,0,3.964,0,1.209,1.209,0,0,0,0-2.29,4.382,4.382,0,0,0-3.964,0A1.209,1.209,0,0,0,221.819,216.167Z" transform="translate(-220.569 -212.973)" fill="#fff"/><path d="M221.872,216.806h0a1.627,1.627,0,0,1,0-3.032,4.784,4.784,0,0,1,4.393,0,1.628,1.628,0,0,1,0,3.032,4.781,4.781,0,0,1-4.393,0Zm.429-2.29c-.387.224-.608.505-.608.774s.221.55.608.774h0a3.983,3.983,0,0,0,3.535,0c.384-.224.605-.505.605-.774s-.221-.55-.605-.774a3.986,3.986,0,0,0-3.535,0Z" transform="translate(-220.835 -213.24)"/></g><g transform="translate(3.304 17.516)"><path d="M222.518,217.342a.427.427,0,0,0,.411-.3c.542-1.737,1.371-3.743,1.737-3.953a16.617,16.617,0,0,1,2.224.018.43.43,0,0,0,.058-.858,16.981,16.981,0,0,0-2.45,0c-.676.1-1.479,1.624-2.387,4.537a.428.428,0,0,0,.282.537A.419.419,0,0,0,222.518,217.342Z" transform="translate(-222.09 -212.199)"/></g><g transform="translate(9.091 73.05)"><path d="M232.682,238.011a3.137,3.137,0,0,1-1.769.6c-.792-.134-1.808-1.245-2.766-1.684-.392-.179-1.634-.176-2.016-.4-2.192-1.266-1.9-2.561-1.024-3.064,0,0,.99.126,3.916.466a19.512,19.512,0,0,1,3.874.805A2.238,2.238,0,0,1,232.682,238.011Z" transform="translate(-224.023 -233.023)"/><path d="M231.108,239.313a4.444,4.444,0,0,1-1.687-.942,7.374,7.374,0,0,0-1.19-.776,4.354,4.354,0,0,0-.795-.137,3.7,3.7,0,0,1-1.255-.279c-1.563-.9-1.892-1.8-1.892-2.387a1.648,1.648,0,0,1,.869-1.421l.126-.071.142.018s1,.129,3.914.466c.037,0,3.63.458,4.119.921a2.552,2.552,0,0,1,.721,2.187,2.357,2.357,0,0,1-1,1.755,3.763,3.763,0,0,1-1.827.687A1.534,1.534,0,0,1,231.108,239.313Zm-5.961-4.522c0,.508.534,1.108,1.463,1.645a4.166,4.166,0,0,0,.926.168,4.114,4.114,0,0,1,1.053.211,7.831,7.831,0,0,1,1.345.869,4.109,4.109,0,0,0,1.316.782,2.562,2.562,0,0,0,1.45-.532l.034-.021a1.51,1.51,0,0,0,.592-1.121,1.707,1.707,0,0,0-.432-1.442,23.089,23.089,0,0,0-3.653-.713c-2.279-.263-3.385-.4-3.766-.447A.763.763,0,0,0,225.147,234.791Z" transform="translate(-224.289 -233.299)"/></g><g transform="translate(15.028 69.744)"><path d="M234.559,236.844a3.451,3.451,0,0,1-2.082.719c-.779-.145-1.45-1.248-2.377-1.677-.376-.174-.755-.368-1.124-.582-2.192-1.266-2.748-2.358-1.874-2.861.726-.421,2.211-.3,3.953.482.35.158,3.521.534,3.827.832A2.023,2.023,0,0,1,234.559,236.844Z" transform="translate(-226.279 -231.779)"/><path d="M232.664,238.247a3.136,3.136,0,0,1-1.432-.916,4.507,4.507,0,0,0-1.045-.792c-.395-.182-.784-.384-1.161-.6-1.132-.655-2.482-1.642-2.482-2.635a1.1,1.1,0,0,1,.608-.969c.895-.519,2.558-.34,4.34.458.124.047.75.153,1.253.237,1.845.311,2.458.445,2.7.682a2.312,2.312,0,0,1,.687,2,2.386,2.386,0,0,1-1.095,1.771l-.15.089a3.918,3.918,0,0,1-1.908.708A1.6,1.6,0,0,1,232.664,238.247Zm1.945-1.511h0a1.572,1.572,0,0,0,.674-1.137,1.482,1.482,0,0,0-.4-1.245,15.641,15.641,0,0,0-2.279-.479,8.574,8.574,0,0,1-1.458-.295c-1.721-.774-3.032-.811-3.564-.5-.179.1-.179.189-.179.226,0,.326.537,1.016,2.053,1.89.353.205.721.395,1.092.566a5.306,5.306,0,0,1,1.266.937,2.6,2.6,0,0,0,1.008.708,2.849,2.849,0,0,0,1.619-.568l.168-.1Z" transform="translate(-226.545 -232.043)"/></g><g transform="translate(18.667 12.721)"><path d="M229.379,229.3a1.252,1.252,0,0,0,.518-.111,19.681,19.681,0,0,0,4.866-2.943c.45-.466,1.65-1.706-1.266-14.7a1.288,1.288,0,1,0-2.514.566c1.132,5.04,2.121,11.122,1.813,12.462a18.859,18.859,0,0,1-3.937,2.263,1.288,1.288,0,0,0,.519,2.466Z" transform="translate(-227.661 -210.112)" fill="#f28500"/><path d="M228.076,228.972a1.714,1.714,0,0,1,.877-2.263,19.745,19.745,0,0,0,3.714-2.1c.182-1.369-.634-6.8-1.834-12.144a1.717,1.717,0,1,1,3.35-.75c2.969,13.225,1.745,14.489,1.155,15.094a19.63,19.63,0,0,1-5,3.037,1.694,1.694,0,0,1-.692.147A1.716,1.716,0,0,1,228.076,228.972Zm4.243-17.718a.864.864,0,0,0-.537.379.851.851,0,0,0-.113.647c1.132,5.04,2.153,11.188,1.813,12.652l-.032.132-.1.09A19.2,19.2,0,0,1,229.3,227.5a.857.857,0,0,0-.437,1.132.873.873,0,0,0,1.132.437,19.43,19.43,0,0,0,4.73-2.848c.99-1.021.526-5.838-1.379-14.312a.862.862,0,0,0-.837-.671A.9.9,0,0,0,232.319,211.254Z" transform="translate(-227.928 -210.377)"/></g><g transform="translate(19.173 44.969)"><path d="M230.287,250.709a2,2,0,0,0,2-1.966l.429-23.908a2,2,0,1,0-4.006-.074l-.429,23.908a2,2,0,0,0,1.966,2.04Z" transform="translate(-227.852 -222.362)" fill="#f28500"/><path d="M230.51,251.406a2.431,2.431,0,0,1-2.39-2.474l.432-23.908a2.462,2.462,0,0,1,.774-1.737,2.3,2.3,0,0,1,1.7-.653,2.435,2.435,0,0,1,2.387,2.477l-.429,23.908a2.444,2.444,0,0,1-2.432,2.387Zm-.595-27.5a1.6,1.6,0,0,0-.505,1.126l-.429,23.908a1.565,1.565,0,0,0,.439,1.124,1.583,1.583,0,0,0,1.121.479l.013.429v-.429A1.581,1.581,0,0,0,232.129,249l.429-23.908a1.579,1.579,0,0,0-1.555-1.6l-.061,0A1.487,1.487,0,0,0,229.915,223.91Z" transform="translate(-228.12 -222.629)"/></g><g transform="translate(12.76 46.408)"><path d="M228.8,252.957h.076a2,2,0,0,0,1.927-2.077l-.95-25.611a2,2,0,0,0-4.006.15l.953,25.609A2,2,0,0,0,228.8,252.957Z" transform="translate(-225.418 -222.909)" fill="#f28500"/><path d="M226.635,251.313l-.95-25.611a2.433,2.433,0,0,1,2.332-2.521,2.375,2.375,0,0,1,1.737.626,2.435,2.435,0,0,1,.792,1.713l.95,25.611a2.43,2.43,0,0,1-2.327,2.519l-.105,0A2.423,2.423,0,0,1,226.635,251.313Zm1.421-27.275a1.569,1.569,0,0,0-1.513,1.629l.95,25.611a1.568,1.568,0,0,0,1.571,1.516v.429l.06-.429a1.577,1.577,0,0,0,1.513-1.632l-.95-25.611a1.586,1.586,0,0,0-.513-1.113,1.53,1.53,0,0,0-1.037-.4Z" transform="translate(-225.683 -223.176)"/></g><g transform="translate(10.469 12.354)"><path d="M229.36,252.211a28.042,28.042,0,0,0,3.253-1.666c6.306-3.666,6.306-5.58,6.306-5.58,3.516-12.388-2.1-14.531-2.1-18.731s2.1-5.882,2.1-14.2a1.475,1.475,0,0,0-2.358-1.358l-1.85,1.076a2.857,2.857,0,0,1-1.34,2.845,3.186,3.186,0,0,1-3.266-.168l-1.742,1.013a4.113,4.113,0,0,0-2.055,3.572c0,4.224,1.408,5.748,1.408,8.9,0,5.48-4.551,5.048-1.919,21.474C225.87,249.845,226.307,253.48,229.36,252.211Z" transform="translate(-224.545 -209.973)" fill="#f8ae4f"/><path d="M227.311,252.884c-.863-.487-1.424-1.534-1.671-3.171-1.782-11.13-.305-14.607.884-17.4a9.666,9.666,0,0,0,1.029-4.143,13,13,0,0,0-.613-3.648,18.237,18.237,0,0,1-.795-5.248,4.516,4.516,0,0,1,2.269-3.943l1.982-1.153.226.161a2.737,2.737,0,0,0,2.8.147,2.406,2.406,0,0,0,1.132-2.4l-.05-.292,2.108-1.227a2.113,2.113,0,0,1,2.09-.095,1.983,1.983,0,0,1,.913,1.824,32.218,32.218,0,0,1-1.326,9.733,15.7,15.7,0,0,0-.769,4.472,8.068,8.068,0,0,0,1.182,3.579c1.408,2.806,3.337,6.643.908,15.231-.055.453-.645,2.461-6.514,5.872a28.582,28.582,0,0,1-3.306,1.69h0a3.5,3.5,0,0,1-1.35.3A2.268,2.268,0,0,1,227.311,252.884Zm11.446-7.654.016-.116c2.355-8.293.584-11.817-.84-14.649a8.71,8.71,0,0,1-1.271-3.966,16.393,16.393,0,0,1,.8-4.7,31.527,31.527,0,0,0,1.295-9.5,1.157,1.157,0,0,0-.484-1.079,1.261,1.261,0,0,0-1.232.092l-1.611.94a3.2,3.2,0,0,1-1.577,2.982,3.52,3.52,0,0,1-3.487-.04l-1.521.884a3.662,3.662,0,0,0-1.842,3.2,17.194,17.194,0,0,0,.766,5.022,13.689,13.689,0,0,1,.642,3.874,10.459,10.459,0,0,1-1.1,4.477c-1.145,2.692-2.571,6.043-.819,16.992.247,1.627.811,2.256,1.237,2.5a1.939,1.939,0,0,0,1.729-.058h0a27.491,27.491,0,0,0,3.2-1.64c5.84-3.4,6.093-5.209,6.093-5.209Z" transform="translate(-224.813 -210.237)"/></g><g transform="translate(2.004 19.12)"><path d="M230.068,227.648a2.005,2.005,0,0,0,1.469-.611c1.6-1.671,2.679-9.388,3.066-12.625a1.287,1.287,0,0,0-2.556-.308c-.524,4.374-1.5,9.507-2.208,10.9-1.061-.447-3.619-2.864-5.8-5.506a1.287,1.287,0,1,0-1.987,1.637c1.587,1.929,5.543,6.424,7.93,6.514Z" transform="translate(-221.33 -212.542)" fill="#f28500"/><path d="M230.233,228.341c-2.474-.092-6.227-4.222-8.246-6.672a1.718,1.718,0,0,1,1.492-2.8,1.692,1.692,0,0,1,1.155.618,29.271,29.271,0,0,0,5.261,5.18,59.6,59.6,0,0,0,1.99-10.346,1.716,1.716,0,1,1,3.408.408c-.487,4.074-1.548,11.167-3.185,12.873a2.429,2.429,0,0,1-1.776.742Zm2.824-14.491a.864.864,0,0,0-.321.574c-.511,4.264-1.49,9.559-2.25,11.038l-.182.355-.368-.155c-1.14-.482-3.758-2.956-5.961-5.63a.844.844,0,0,0-.579-.308.873.873,0,0,0-.629.192.857.857,0,0,0-.116,1.208c3.229,3.924,6.077,6.3,7.609,6.359l.074,0a1.59,1.59,0,0,0,1.158-.476c1.053-1.1,2.156-5.727,2.95-12.383a.87.87,0,0,0-.176-.634.851.851,0,0,0-.574-.318.676.676,0,0,0-.1-.008A.858.858,0,0,0,233.057,213.85Z" transform="translate(-221.596 -212.808)"/></g><g transform="translate(10.772 0.997)"><path d="M234.525,218.79c-1.495-1.858-1.119-3.092-1.119-3.092a22,22,0,0,0,.537-5.58c-.237-2.113-1.827-4.451-3.916-3.969s-4.935.879-4.937,4.4c0,9.335,3.7,8.225,3.7,8.225l1.34,2.727S236.02,220.645,234.525,218.79Z" transform="translate(-224.664 -205.657)" fill="#f28500"/><path d="M230.4,222.192a.4.4,0,0,0,.189-.045.429.429,0,0,0,.2-.574l-1.342-2.727a.425.425,0,0,0-.508-.221,1.529,1.529,0,0,1-1.237-.342c-.871-.669-1.913-2.508-1.911-7.469,0-2.953,2.132-3.429,4.193-3.89l.408-.092a2.019,2.019,0,0,1,1.674.361,4.792,4.792,0,0,1,1.721,3.24,21.936,21.936,0,0,1-.529,5.438c-.011.026-.416,1.442,1.2,3.453a.427.427,0,0,0,.6.066.433.433,0,0,0,.066-.605c-1.308-1.624-1.045-2.692-1.042-2.7a22.028,22.028,0,0,0,.553-5.745,5.613,5.613,0,0,0-2.079-3.843,2.883,2.883,0,0,0-2.361-.5l-.4.092c-2.053.458-4.864,1.084-4.864,4.727,0,4.3.766,7.048,2.282,8.175a2.472,2.472,0,0,0,1.6.513l1.205,2.45A.428.428,0,0,0,230.4,222.192Z" transform="translate(-224.928 -205.922)"/></g><g transform="translate(10.689)"><path d="M225.122,208.893c-.421,2.092,1.842,4.293,2.916,5.938s3.656,4.364,4.185,7.438-.413,10.743-.153,12.238,2.727,4.285,2.727,4.285-1.361-4.306-1.271-6.051,1.508-7.7,1.521-10.328a11.811,11.811,0,0,0-1.613-5.3s1.613-3.787,1.613-5.932-1.34-5.1-4.114-5.435C228.575,205.461,225.448,207.282,225.122,208.893Z" transform="translate(-224.612 -205.259)" fill="#fff"/><path d="M234.736,239.381c-.261-.295-2.561-2.935-2.835-4.511a29.108,29.108,0,0,1,.095-4.343,45.782,45.782,0,0,0,.055-7.9c-.384-2.248-1.984-4.374-3.15-5.927-.374-.5-.711-.948-.966-1.337-.239-.366-.539-.763-.858-1.182-1.108-1.461-2.487-3.277-2.121-5.1h0c.384-1.913,3.8-3.808,6.317-3.514,3.116.376,4.519,3.674,4.519,5.893a19.992,19.992,0,0,1-1.563,5.9,11.911,11.911,0,0,1,1.563,5.332,47.665,47.665,0,0,1-.929,6.635c-.287,1.555-.555,3.027-.592,3.716-.084,1.642,1.237,5.848,1.25,5.888Zm-8.877-30.112c-.284,1.411.9,2.977,1.953,4.358.332.434.645.85.895,1.234s.571.805.932,1.287c1.224,1.627,2.9,3.856,3.322,6.327a45.948,45.948,0,0,1-.042,8.106,31.484,31.484,0,0,0-.111,4.129,6.941,6.941,0,0,0,1.2,2.256,16.215,16.215,0,0,1-.653-3.964c.037-.753.3-2.182.6-3.837a46.842,46.842,0,0,0,.916-6.474,11.432,11.432,0,0,0-1.548-5.053l-.032-.421c.018-.037,1.579-3.727,1.579-5.751,0-1.882-1.15-4.669-3.708-4.98-2.129-.266-5.037,1.463-5.3,2.782Z" transform="translate(-224.896 -205.543)"/></g><g transform="translate(0.707 24.353)"><path d="M224.149,218.337a.858.858,0,0,0,.79-.524,3.48,3.48,0,0,0-.374-2.524c-.474-.474-.942.861-1.121.7a7,7,0,0,1-.637-.69.857.857,0,1,0-1.363,1.04,7.623,7.623,0,0,0,2.369,1.932A.848.848,0,0,0,224.149,218.337Z" transform="translate(-220.838 -214.53)" fill="#f48700"/><path d="M223.913,218.933a8.052,8.052,0,0,1-2.545-2.069,1.286,1.286,0,0,1-.253-.953,1.288,1.288,0,0,1,2.3-.608c.068.089.19.226.308.353a1.263,1.263,0,0,1,.84-.629.7.7,0,0,1,.571.226,3.788,3.788,0,0,1,.466,3,1.287,1.287,0,0,1-1.184.784A1.327,1.327,0,0,1,223.913,218.933Zm.455-2.706c-.168.237-.316.44-.574.466l-.232.008-.142-.129a7.349,7.349,0,0,1-.687-.75.438.438,0,0,0-.284-.163.425.425,0,0,0-.318.084.419.419,0,0,0-.166.284.424.424,0,0,0,.084.316,7.343,7.343,0,0,0,2.2,1.8.43.43,0,0,0,.566-.226,3.6,3.6,0,0,0-.218-1.971C224.515,216.027,224.423,216.156,224.368,216.227Z" transform="translate(-221.104 -214.796)"/></g></g></g></g></g></svg>