<svg xmlns="http://www.w3.org/2000/svg" viewBox="0 0 100.73 25.659"><g transform="translate(-184.022 -419.51)"><path d="M346.447,453.174a6.6,6.6,0,1,0-.2,11.553.424.424,0,0,1,.542.125,1.668,1.668,0,0,0,2.961-1.005v-4.953A6.6,6.6,0,0,0,346.447,453.174Zm-3.3,9.022a3.3,3.3,0,1,1,3.242-2.677A3.332,3.332,0,0,1,343.146,462.2Z" transform="translate(-128.027 -27.264)"/><path d="M564.4,453.174a6.6,6.6,0,1,0-.2,11.553.422.422,0,0,1,.54.124,1.668,1.668,0,0,0,2.962-1v-4.953A6.6,6.6,0,0,0,564.4,453.174Zm-3.3,9.022a3.3,3.3,0,1,1,3.242-2.677A3.332,3.332,0,0,1,561.1,462.2Z" transform="translate(-310.968 -27.264)"/><path d="M452.326,465.4a5.068,5.068,0,0,0,.779-.083c.114-.02.357-.106.468-.049.234.12.026.447-.052.632a1.7,1.7,0,0,0,.666,2.239,1.66,1.66,0,0,0,2.229-.656c.012-.017.021-.037.033-.058a17.523,17.523,0,0,0,2.187-8.935,4.906,4.906,0,0,0-.268-1.6,6.6,6.6,0,0,0-12.207-1.134,6.705,6.705,0,0,0,.172,6.327A6.418,6.418,0,0,0,452.326,465.4Zm2.542-4.929a3.334,3.334,0,0,1-3.454,1.544,3.3,3.3,0,0,1-.483-6.356,3.3,3.3,0,0,1,3.937,4.812Z" transform="translate(-219.427 -26.46)"/><path d="M0,0" transform="translate(263.907 429.923)"/><path d="M679.915,457.146v6.508a1.724,1.724,0,0,1-1.284,1.7,1.661,1.661,0,0,1-2.018-1.609v-6.508a1.724,1.724,0,0,0-1.284-1.7,1.661,1.661,0,0,0-2.018,1.609v6.508a1.724,1.724,0,0,1-1.284,1.7,1.661,1.661,0,0,1-2.018-1.609v-6.508a1.724,1.724,0,0,0-1.284-1.7,1.661,1.661,0,0,0-2.018,1.609v6.508a1.724,1.724,0,0,1-1.284,1.7,1.661,1.661,0,0,1-2.018-1.609v-6.6a4.952,4.952,0,0,1,6.6-4.668,4.891,4.891,0,0,1,1.406.769.4.4,0,0,0,.489,0,4.972,4.972,0,0,1,4.708-.769A4.946,4.946,0,0,1,679.915,457.146Z" transform="translate(-401.766 -27.168)"/><path d="M1.651,0A1.651,1.651,0,1,1,0,1.651,1.651,1.651,0,0,1,1.651,0Z" transform="translate(281.45 419.51)"/><path d="M797.484,453.847v9.9a1.651,1.651,0,0,1-3.3,0v-9.9a1.651,1.651,0,1,1,3.3,0Z" transform="translate(-512.732 -27.17)"/><path d="M203.8,440.424a10.614,10.614,0,0,0-6.955-9.444,9.771,9.771,0,0,0-11.125,4.14c-2.467,3.832-2.075,8.966.062,12.854a13.706,13.706,0,0,0,4.9,5.164,16.614,16.614,0,0,0,1.643.851,3.584,3.584,0,0,0,1.754.518,5.633,5.633,0,0,0,1.724-.653,14.177,14.177,0,0,0,1.476-.8,14.352,14.352,0,0,0,6.455-10.551A13.866,13.866,0,0,0,203.8,440.424Zm-14.833-4.276a6.467,6.467,0,0,1,8.595-1.161,7.251,7.251,0,0,1,2.384,8.54,6.945,6.945,0,0,1-2.873,3.349,6.342,6.342,0,0,1-1.988.757,5.636,5.636,0,0,1-1.232.111c-.344-.009-1.008-.231-1.313.009-.263.207-.1.559-.037.823a2.216,2.216,0,0,1-.007,1.2,1.7,1.7,0,0,1-1.555,1.14c-1.167-.016-1.78-1.561-2.152-2.513C187.312,444.627,186.266,439.589,188.969,436.148Z" transform="translate(0 -9.345)"/></g></svg>