<svg xmlns="http://www.w3.org/2000/svg" xmlns:xlink="http://www.w3.org/1999/xlink" width="469.225" height="895.472" viewBox="0 0 469.225 895.472">
  <defs>
    <linearGradient id="linear-gradient" x1="1.209" y1="1.251" x2="0" gradientUnits="objectBoundingBox">
      <stop offset="0" stop-color="#3d0fb8"/>
      <stop offset="1" stop-color="#fad9ff"/>
    </linearGradient>
    <linearGradient id="linear-gradient-2" x1="0.088" y1="0.5" x2="0.824" y2="0.5" gradientUnits="objectBoundingBox">
      <stop offset="0" stop-color="#5f5f5f"/>
      <stop offset="0.083" stop-color="silver"/>
      <stop offset="1" stop-color="#353535"/>
    </linearGradient>
    <linearGradient id="linear-gradient-5" x1="0.5" y1="1" x2="0.5" y2="-0.229" gradientUnits="objectBoundingBox">
      <stop offset="0" stop-color="#d0d5e1"/>
      <stop offset="0.182" stop-color="#586782" stop-opacity="0"/>
      <stop offset="1" stop-color="#ccd1de"/>
    </linearGradient>
    <linearGradient id="linear-gradient-6" x1="0.5" x2="0.5" y2="0.5" gradientUnits="objectBoundingBox">
      <stop offset="0" stop-color="#d0d5e1"/>
      <stop offset="1" stop-color="#586782" stop-opacity="0"/>
    </linearGradient>
    <pattern id="pattern" preserveAspectRatio="xMidYMid slice" width="100%" height="100%" viewBox="0 0 1440 2960">
      <image width="1440" height="2960" xlink:href="../../Downloads/Screenshot_20201101-203312_Pagami.jpg"/>
    </pattern>
    <clipPath id="clip-path">
      <path id="Screen" d="M16.98,0C6.516,0,0,11.5,0,17.194V422.105C0,427.8,6.516,439.3,16.98,439.3H188.568c10.463,0,16.98-11.5,16.98-17.194V17.194C205.548,11.5,199.031,0,188.568,0Z" fill="url(#linear-gradient)"/>
    </clipPath>
    <linearGradient id="linear-gradient-7" x1="0.5" y1="0.5" x2="0" y2="0.5" gradientUnits="objectBoundingBox">
      <stop offset="0" stop-color="#fff" stop-opacity="0"/>
      <stop offset="1" stop-color="#fff" stop-opacity="0.549"/>
    </linearGradient>
    <linearGradient id="linear-gradient-8" x2="1" xlink:href="#linear-gradient-7"/>
  </defs>
  <g id="Grupo_2" data-name="Grupo 2" transform="translate(4998 1378)">
    <rect id="Rectángulo_416" data-name="Rectángulo 416" width="469.225" height="895.472" transform="translate(-4998 -1378)" fill="none"/>
    <g id="Samssung_S9" data-name="Samssung S9" transform="translate(-4958.5 -1211)">
      <g id="device_buttons" data-name="device buttons" transform="translate(0 81.844)">
        <path id="button_3" data-name="button 3" d="M0,0H.9A1.977,1.977,0,0,1,2.875,1.977V64.8A1.977,1.977,0,0,1,.9,66.778H0a0,0,0,0,1,0,0V0A0,0,0,0,1,0,0Z" transform="translate(2.875 66.778) rotate(180)" fill="url(#linear-gradient-2)"/>
        <path id="button_2" data-name="button 2" d="M0,0H.9A1.977,1.977,0,0,1,2.875,1.977V30.6A1.977,1.977,0,0,1,.9,32.578H0a0,0,0,0,1,0,0V0A0,0,0,0,1,0,0Z" transform="translate(2.875 125.826) rotate(180)" fill="url(#linear-gradient-2)"/>
        <path id="button_1" data-name="button 1" d="M0,0H.9A1.977,1.977,0,0,1,2.875,1.977V30.6A1.977,1.977,0,0,1,.9,32.578H0a0,0,0,0,1,0,0V0A0,0,0,0,1,0,0Z" transform="translate(217.03 66.188)" fill="url(#linear-gradient-2)"/>
      </g>
      <g id="device_shape" data-name="device shape" transform="translate(2.731 0.966)">
        <path id="Phone_Shape" data-name="Phone Shape" d="M28.153,0C11.432,0,0,17.077,0,28.919V444.2c0,11.653,11.432,27.9,28.153,27.9H186.577c16.721,0,28.153-16.033,28.153-27.9V28.284C214.73,17.508,203.3,0,186.577,0Z" transform="translate(0 0.035)" fill="#586c82"/>
        <rect id="antenna_" data-name="antenna?" width="5.09" height="7.906" transform="translate(27.811 464.277)" fill="#91a0c1" opacity="0.4"/>
        <path id="antenna_2" data-name="antenna?" d="M0,.417A19.8,19.8,0,0,1,5.09.053V7.179H0S0,2.324,0,.417Z" transform="translate(23.739 -0.018)" fill="#91a0c1" opacity="0.4"/>
        <rect id="antenna_3" data-name="antenna?" width="5.09" height="7.906" transform="translate(182.559 464.277)" fill="#91a0c1" opacity="0.4"/>
        <path id="antenna_4" data-name="antenna?" d="M0,0A21.912,21.912,0,0,1,5.09.572V7.127H0Z" transform="translate(186.631 0.035)" fill="#91a0c1" opacity="0.4"/>
        <path id="Front" d="M26.59,0C10.2,0,0,15.265,0,24.179v416.7c0,8.915,10.2,22.143,26.59,22.143H185.266c16.385,0,26.59-13.228,26.59-22.143V24.179c0-8.915-10.2-24.179-26.59-24.179Z" transform="translate(1.437 4.36)" fill="#1d1d1d"/>
        <path id="light_illumination_bottom" data-name="light illumination bottom" d="M25.177.3H183.514c14.689,0,24.8-16.289,24.8-16.289L189.2-3.77H21.1L0-16.75S10.046.3,25.177.3Z" transform="translate(3.378 471.864)" opacity="0.4" fill="url(#linear-gradient-5)"/>
        <path id="light_illumination_top" data-name="light illumination top" d="M25.177,0H183.514c14.689,0,24.8,16.289,24.8,16.289L189.2,4.072H21.1L0,17.052S10.046,0,25.177,0Z" transform="translate(3.378 0.035)" opacity="0.4" fill="url(#linear-gradient-6)"/>
        <g id="Screen-2" data-name="Screen" transform="translate(4.527 18.537)">
          <g id="Grupo_1" data-name="Grupo 1">
            <path id="Screen-3" data-name="Screen" d="M16.98,0C6.516,0,0,11.5,0,17.194V422.105C0,427.8,6.516,439.3,16.98,439.3H188.568c10.463,0,16.98-11.5,16.98-17.194V17.194C205.548,11.5,199.031,0,188.568,0Z" fill="url(#pattern)"/>
            <g id="Enmascarar_grupo_1" data-name="Enmascarar grupo 1" clip-path="url(#clip-path)">
              <path id="S9" d="M44.894,143.208h0l-15.813,0c.212-.3,31.187-44.364,33.435-47.6-5.084,1.836-7.737,2.129-13.647,2.129A48.881,48.881,0,0,1,29.846,3.84a48.853,48.853,0,0,1,67.89,45.027,53.848,53.848,0,0,1-6.369,25.291C88.06,80.038,50.217,136.033,44.894,143.208ZM48.867,11.2A37.669,37.669,0,1,0,86.536,48.867,37.711,37.711,0,0,0,48.867,11.2Z" transform="translate(54.844 138.281)" fill="#fff" opacity="0.1" style="mix-blend-mode: screen;isolation: isolate"/>
            </g>
          </g>
        </g>
      </g>
      <g id="sensors_cam" data-name="sensors &amp; cam" transform="translate(34.207 9.593)">
        <rect id="shape" width="25.871" height="3.008" rx="1" transform="translate(62.953 2.025)" fill="#2c2b2e"/>
        <g id="shape-2" data-name="shape" transform="translate(130.314 0.863)" fill="#040307" stroke="#14181c" stroke-miterlimit="10" stroke-width="0.706">
          <ellipse cx="2.3" cy="2.301" rx="2.3" ry="2.301" stroke="none"/>
          <ellipse cx="2.3" cy="2.301" rx="2.653" ry="2.654" fill="none"/>
        </g>
        <g id="shape-3" data-name="shape" transform="translate(32.962 1.294)" fill="#040307" stroke="#14181c" stroke-miterlimit="10" stroke-width="0.706">
          <ellipse cx="1.868" cy="1.869" rx="1.868" ry="1.869" stroke="none"/>
          <ellipse cx="1.868" cy="1.869" rx="2.221" ry="2.222" fill="none"/>
        </g>
        <g id="shape-4" data-name="shape" transform="translate(26.853 1.294)" fill="#040307" stroke="#14181c" stroke-miterlimit="10" stroke-width="0.706">
          <ellipse cx="1.868" cy="1.869" rx="1.868" ry="1.869" stroke="none"/>
          <ellipse cx="1.868" cy="1.869" rx="2.221" ry="2.222" fill="none"/>
        </g>
        <g id="shape-5" data-name="shape" transform="translate(0 1.869)" fill="#040307" stroke="#14181c" stroke-miterlimit="10" stroke-width="0.706">
          <ellipse cx="1.365" cy="1.366" rx="1.365" ry="1.366" stroke="none"/>
          <ellipse cx="1.365" cy="1.366" rx="1.718" ry="1.719" fill="none"/>
        </g>
        <g id="shape-6" data-name="shape" transform="translate(115.737 0)" fill="#020518" stroke="#14181c" stroke-miterlimit="10" stroke-width="1">
          <ellipse cx="3.09" cy="3.091" rx="3.09" ry="3.091" stroke="none"/>
          <ellipse cx="3.09" cy="3.091" rx="3.59" ry="3.591" fill="none"/>
        </g>
        <g id="shape-7" data-name="shape" transform="translate(13.079 0)" fill="#040307" stroke="#14181c" stroke-miterlimit="10" stroke-width="1.412">
          <ellipse cx="3.09" cy="3.091" rx="3.09" ry="3.091" stroke="none"/>
          <ellipse cx="3.09" cy="3.091" rx="3.796" ry="3.797" fill="none"/>
        </g>
      </g>
      <g id="glossiness" transform="translate(5.462 9.928)">
        <path id="left" d="M5.639,14.622C5.639,12.235,7.851,3.874,11.474,0A32.678,32.678,0,0,0,5.207,5.726C0,11.634,0,15.794,0,19.992V438.759c0,4.2,2.2,7.849,6.254,11.775A28.548,28.548,0,0,0,13.51,455.7c-3.592-4.784-6.755-10.788-6.755-14.771Z" transform="translate(0 0)" fill="url(#linear-gradient-7)" style="mix-blend-mode: hard-light;isolation: isolate"/>
        <path id="right" d="M-5.4,14.622C-5.4,12.235-7.611,3.874-11.234,0A32.678,32.678,0,0,1-4.967,5.726C.24,11.634.24,15.794.24,19.992V438.759c0,4.2-2.2,7.849-6.254,11.775a28.548,28.548,0,0,1-7.256,5.163c3.592-4.784,6.755-10.788,6.755-14.771Z" transform="translate(209.388 0.236)" fill="url(#linear-gradient-8)" style="mix-blend-mode: hard-light;isolation: isolate"/>
      </g>
      <g id="display_buttons" data-name="display buttons" transform="translate(48.868 445.9)" opacity="0.5">
        <g id="back" transform="translate(116.061 0)">
          <path id="path" d="M7.846,4.743H.575a.575.575,0,0,1-.406-.982L3.8.126a.431.431,0,0,1,.61.61L1.269,3.881H7.846a.431.431,0,0,1,0,.862" transform="translate(0)" fill="#fff"/>
          <path id="path-2" data-name="path" d="M1.146,0H.052A.052.052,0,0,0,.015.089l2.739,2.64A.431.431,0,0,0,3.388,2.7.453.453,0,0,0,3.342,2.1Z" transform="translate(1.018 5.09)" fill="#fff"/>
        </g>
        <g id="home" transform="translate(58.03 0)">
          <path id="path-3" data-name="path" d="M.431,6.9A.431.431,0,0,1,0,6.468V1.294A1.3,1.3,0,0,1,1.294,0H7.905a.431.431,0,0,1,0,.862H1.294a.432.432,0,0,0-.431.431V6.468A.431.431,0,0,1,.431,6.9" transform="translate(0 0)" fill="#fff"/>
          <path id="path-4" data-name="path" d="M7.043,6.9H.431a.431.431,0,0,1,0-.862H7.043a.432.432,0,0,0,.431-.431V.431a.431.431,0,1,1,.862,0V5.606A1.3,1.3,0,0,1,7.043,6.9" transform="translate(0 1.018)" fill="#fff"/>
        </g>
        <g id="switch" transform="translate(0 0)">
          <path id="path-5" data-name="path" d="M.431,3.294a.431.431,0,0,1,0-.862H5.893A.432.432,0,0,0,6.324,2V.431a.431.431,0,1,1,.862,0V2A1.3,1.3,0,0,1,5.893,3.294Z" fill="#fff"/>
          <path id="path-6" data-name="path" d="M0,3.47V1.294A1.3,1.3,0,0,1,1.294,0H6.755a.431.431,0,0,1,0,.862H1.294a.432.432,0,0,0-.431.431V3.47A.431.431,0,1,1,0,3.47Z" transform="translate(0 4.072)" fill="#fff"/>
        </g>
      </g>
    </g>
  </g>
</svg>
